<?xml version="1.0" encoding="UTF-8"?>
<svg id="_图层_2" data-name="图层_2" xmlns="http://www.w3.org/2000/svg" version="1.1" viewBox="0 0 595.28 841.89">
  <!-- Generator: Adobe Illustrator 30.0.0, SVG Export Plug-In . SVG Version: 2.1.1 Build 123)  -->
  <defs>
    <style>
      .st0 {
        fill: #fff;
      }

      .st1 {
        fill: #cf646f;
      }

      .st2 {
        fill: #d95b64;
      }

      .st3 {
        fill: #cd5e62;
      }

      .st4 {
        fill: #db5961;
      }
    </style>
  </defs>
  <rect class="st0" x="79.74" y="76.69" width="435.79" height="687.61" rx="31.94" ry="31.94"/>
  <path class="st2" d="M140.74,98.71c1-.04,2,.03,3,0s2,.02,3,0v3c2.55-1.01,5.57.86,7,1,.9,2.03,8.98,9.16,10.35,8.91,1.61-1.5,9.8-7.18,9.64-8.91-.1-1.08-3.58-1.76-3-4,1,0,2,0,3,0,1.67-.01,3.33.01,5,0-1.17,3.03,2.15,3.64,5,4,1.21,2.14,8.37,9.23,10.35,8.89.57-.1,8.1-6.68,8.77-7.41,1.09-1.19-.14-1.41-.13-1.48.11-1.31-.08-2.68,0-4,1,0,2,0,3,0,1.67,0,3.33,0,5,0-.97,3.68,1.58,2.57,3,4,2.12,2.14,6.73,8.59,9.67,8.85.57.05,8.79-6.61,9.1-7.09.44-.68.14-1.19.22-1.76.16-1.3-.11-2.69,0-4,1.67,0,3.33,0,5,0s3.33,0,5,0c.19,1.21-.28,2.95,0,4,.18.67,9.57,9.03,10.49,9.03,2.33,0,7.59-7.13,9.49-9.03,1.1-1.09,4.05-.17,3-4,1.33,0,2.66,0,4,0,1.67,0,3.33,0,5,0-.23,1.35-.76,2.65-1,4-.02.1-.75.23-.73.52.06.72,8.74,8.27,9.36,8.37,1.96.35,9.16-6.76,10.35-8.89,2.85-.36,6.17-.97,5-4,1.33,0,2.67,0,4,0,.46,0,1.8,1,3,1,.11,1.12-.81,2.16-1,3-.06.26-1.16-.05-.57.97.81,1.4,7.68,7.75,9.24,7.88,1.28.11,9.39-6.93,10.32-8.85,2.17-.17,7-2.16,9.45-2.03,1.17.06.24,1.49.55,2.03,1.06,1.85,7.82,9.03,9.49,9.03,2.91,0,5.87-7.07,9.49-7.03.05.16,2.17,1.95,3,1.51,1.85-.98-.72-3.87,0-4.5.32-.28,7.95-1.15,8.37-1.08,1,.17.54,2.01.62,2.07-1.99.42,1.04,2.54,1.5,3,9.3,9.33,8.03,6.02,16.49-3,3.09-.04,7,.02,9.99,0l8.99,8.99c-.7.72-1.09,3.41-2.46,5.04-3.52,4.2-7.58,4.53-9.32,6.17-1.17,1.11-.17,4.47-3.21,3.77-1.34-2.71-11.25-8.84-13.49-11.98-2.83,3.6-11.1,8.21-13.04,11.98-.5.96-.57,1.02-.02,2.02,1.03,1.87,10.05,7.33,11.59,10.52,1.98.99,5.38-2.16,6.97-3.55,2.34-1.26,4.69-3.04,6.9-4.59,1.15-.81.99-2.33,1.1-2.4.12-.09,2.59-.1,3,0,.44.11.73.85,1,1,.33.18.62.76,1,1,4.18,2.65,7.1,5.52,10.64,8.89,1.14.2,6.07-3.83,7.35-4.89,4.43-1.85,6.47-6.98,11.99-4,.29.36.71.63,1,1,.76.98,1.54,1.44,2,2,.26.31.67.6,1,1,1.27,1.56,1.88,1.85,2,2,.18.23-.24,1.02.02,1.34,1.62,1.98,4.53,2.6,1.98,6.66-.34.24-.65.69-1,1s-.65.68-1,1-.63.68-1,1l-7.26,5.32c-.71.54-2.47.41-2.74.67,1.95-1.88-4.25-3.53-5-4-3.24-2-5.76-4.11-8.48-6.75l-14.49,12.25,13.97,12.49c-.99,1.21-1.67,3.43-2,5-4.04,2.69-7.9,7.5-11.97,10.49l13.61,12.42c2.1.36,12.24-10.38,14.33-12.42-2.57-1.86-4.81-5.62-6.98-7.5l-6.99-6.5c4.11-.21,4.12-3.31,5.99-5.49.79-.92,1.45-1.39,2-2,1.81.33,2.32-.19,2-2,.32-.36.68-.66,1-1l6-2c3.11,3.82,9.27,6.99,12.63,10.92.84.15,8.4-6.69,10.36-7.92.53-.34,2.61.85,2-2,.32-.34.7-.65,1-1,.96-.19,2.26-.37,3-1,.63.7,1.4,1.29,2,2,1.69,2,3.75,3.51,5,5,.3.35.7.63,1,1,6.1,7.47,3.69,6.98-2,12.99-1.91,1.83-3.69,4.77-5.98,6.5l13.61,12.42c.78.14,11.47-8.93,12.36-9.93,2.8-2.38,4.8,2.78,8.99,3,.3.35.71.62,1,1,.81,1.04-1.49.71,2,2,.99.36,1.9.93,3,1,.06.1,1.35-.25,1.75.19,1,1.14-.18,8.56.24,10.79l-1.99-1.99c-1.5.55-10.99,7.88-11.06,8.58-.21,2.04,9.54,10.59,10.55,10.41.6-.17.41-.92.51-1,.81-.7.68-2.27,1.99-1.99l.02,25.47c-1.42,1.62-.98-1.12-1.01-1.98-.09-3.29.91-7.74-1-10.51-.11-.34.15-.81-.51-.99-.52.12-1.14-.15-1.49,0-3.14,2.22-8.17,4.14-8.99,7.99v1c-.83-.8-3.91-2.68-4.64-3.29-1.83-1.55-2.39-4.4-6.35-4.7-.32-.34-.68-.65-1-1s-.69-.65-1-1-.69-.64-1-1c-.15-.17-1.8-3.9-2-4l13.96-12.49c-3.59-2.13-10.13-10.59-12.97-12.05-.96-.49-1.02-.5-1.98,0-1.02.53-12.98,11.17-12.98,12.05,1.97,2.51,4.75,4.34,6.98,6.5.37,4.32,2.22,4.43,5,6,.92,5.49-4.82,5.29-7,9.99-1.58,1.57-3.01,4.05-4.98,5.5,0,.89,11.96,11.53,12.98,12.05,1.76.91,6.21-3.94,7.99-5.56,2.66-.17,3.62-2.15,5-4,.28-.38.66-.68,1-1,.26.19,2.64.07,3.75.69,1.41.79,1.19,2.75,3.24,2.31,1.39,1.26,3.04,3.22,4,4l4.99,1v11.98s-1-4.99-1-4.99l-1.99,2-9.97,9.46c2.2,2.11,4.17,4.54,6.5,6.5.48.4,3.98,3.64,4.47,2.02,2.5-2.07,0-8.87,1.01-10.99h.99s0,36.97,0,36.97h-.99c-.59-4.75,1.25-10.83-1.01-14.99-.05-.66.04-1.34-.01-2-.27-.28-1.37.74-1.99,1-3.88,1.58-2.54,2.12-4.73,4.06-1.13,1-3.97.38-4.26,3.93-.02.29-.07.73,0,1-.6.13-1.6-.19-2,0-.68,0-.76-.8-1-1,.86-3.87-1.42-2.74-4-4-.68-.33-1.49-.27-2.5-.95-2.11-1.41-4.95-6.87-7.46-5.59-1.55.79-13,11.15-13,12.04,1.91,1.65,3.4,3.57,4.98,5.5,1.08,1.32,3.03,4.55,3.26,4.74,1.73,1.43,6.02.18,2.78,5.8-1.57,2.72-4.64,2.71-5.77,3.77-.44.42-.23,1.86-.65,2.24-8.46,7.66-5.13,2.04-13.61-1.56-.76-.65-6.92-5.01-7.36-4.93-3.43,3.97-9.81,7.18-12.65,11.42-.93,1.39-1.26.46,0,2.02.53.66,10.37,9.67,11.04,9.98,4.41,2.05,12.29-8.5,15.97-11.5.35.1,1.65.1,2,0,2.25,2.25,10.96,11.61,12.97,12.46.71.3,2.32-.13,3.02-.46,1.41-.67,1.56-1.69,2-2,.16-.11,1.37-1.43,2-2,.16-.15,1.34.33,1.84-.16s0-1.68.16-1.84c.32-.34.71-.66,1-1l7.99-3c.14.21,1.37,1.22,2,2,1.63,2.03,3.07,4.77,6,5,.15.2-.14.72,0,1,.12.25-.17.81.5.98.62,0,.46-.94.5-.98.39-.32.72-.56,1-1,.81-1.26.6-3.13,1.99-2.99v20.98s-1.14-9.83-1.14-9.83c-6.18-3.33-2.74,1.29-3.98,2.71-.27.31-2.29.22-3.41,1.09-.66.51-4.43,5.18-4.45,6.04-.04,1.78,5.3,7.4,7,8.99.27.25.38.97,1.01,1.48.59.48,1.51.29,1.99.52.21.1.64-.04,1,0,.14.02.88,2.7,1-.48.07-1.89-.95-6.67.99-7.51-.5,2.77.83,14.57-.24,15.79-.39.45-1.68.1-1.75.19-.68.29-1.31.73-2,1-4.02,1.6-5.27,2.32-7,6-.4.86-1.77,1.91-1.86,2.67-.25,1.98,10.12,10.69,10.86,10.33-.22.22.15,1.02.5,1,1.09-.07-.03-1.47-.5-1,.03-.33-.04-.67,0-1l1.99-15.98c-.59,3.65.93,23.45-.24,24.78-.39.45-1.68.1-1.75.19-.68.31-1.32.71-2,1-3.63,1.56-2.72,1.74-5,4-.33.33-.7.65-1,1s-.68.65-1,1c-.59.65-.85,1.72-2,2-.62-.55-5.81-1.89-7-4-2.75-2.71-7.06-4.56-9.49-7.98l-13.49,12.49c-.37,1.48,12.02,10.88,13.49,13.46,2.3-2.95,5.8-4.55,8.49-6.98.85-.77,1.22-1.12,2-2,.31-.35.77-.66,1-1,2,.03,3.92-1.46,5.96-.54,2.49,1.11,8.46,9.76,9.51,9.53,1.24-.27,1.44-2.33,1.56-3.44.22-2-1.14-6.63.94-7.54.34,4.06-.41,8.57-.03,12.56.2,2.08,1.03,2.3,1.04,2.43.06.66-.05,1.34,0,2l-1.5,2.01-.51-3.01c-1.12-.16-.93.96-.99,1-.61.38-1.34.71-2,1-4.17,1.82-6.47,1.68-7.99,7-1.03,3.56-.5,2.14,1,5,1.63,3.11,3.32,5.53,7,6,.42.05,1.02.73,1.51.95.6-.09.41-.57.49-.95,2.25-3.82.43-9.57,1.01-13.99h.99s0,21.98,0,21.98c0,.19-2.45-.31-3.72.27-.35.16-4.64,4.82-5.27,5.72-.36.3-.65.69-1,1-.92.8-2.83,1.52-3,3-.26,2.29,6.84,7.56,8.99,9.5.67.6,1.72,2.39,2,.5l1.99-6.99c-.31,4.06.43,8.61.09,12.59-.27,3.11-1.94,2.92-2.08,3.4h-1l-3,2c-.5.41-2.35,2.32-3,3-2.44-.63-2.22,2.52-3.61,2.91-3.2.9-7.76-3.97-10.38-5.91-2.17-1.6-4.29-3.28-6.51-4.82-2.82,4.04-9.9,7.92-12.52,11.28-2.47,3.17,0,2.08,1.51,3.51,3.56,3.37,6.83,7.76,11.02,10.06.66,0,9.52-7.02,10.49-8.03l7.99-1c.62.69,2.89,2.09,4,3l-.99.51c-.67,1.84,2.19,2.14,3.99,2.49,1.59.31.45.48,2,0,.63-.2,1.78-1.31,1.99-1,.11,4.17-.1,8.38-.03,12.56.04,2.19,1.04,2.29,1.04,2.43,0,.67,0,1.33,0,2,0,.13-1.05.24-1.04,2.43.03,7.18.36,14.42.03,21.55-2.07.22-.35-2.93-1.08-3.88-2.59-3.35-4.33,2.59-5.92,3.39-1.23.62-3.68.29-3.93.55-.7.73,1.83,4.81-3.56,4.79-4.15-.01-4.27-5.06-8.48-5.85-1.12-1.03-5.41-5.09-6.36-4.92l-13.61,12.42,13.62,12.41c2.74-2.49,7.96-5.66,10.35-7.91,3.17-2.52,4.41-3.32,7.99-1,.09.06-.24,1.24.35,1.68.69.51,3.61,1.99,4.65,2.32.88.77,2.09,1.25,3,2,.54.44.79,2.1,1.99,2,.13-3.82-.15-7.68.01-11.5.05-1.21-.76-3.72.99-3.48-.56,3.36.9,20.48-.24,21.79-.32.36-1.21.21-1.75.19-.05,0,.12-1.04-.49-.98-.74.07-8.87,9.23-10.46,10.54-.27,1.18,8.43,7.9,9.96,9.43.29.29-.59,1.61.51,2.01,2.81,1,.59-1.37.49-2.01-.05-.32.01-.67,0-1l1.99-11.99c.1,6.5-.09,13.04-.03,19.55.02,2.19,1.04,2.29,1.04,2.43,0,1.33,0,2.67,0,4,0,.13-1.03.24-1.04,2.43-.04,7.85.13,15.71.03,23.55-1.49.42-.91-1.75-1.99-1.99-1.61-.36-11.22,8.18-11.06,10.43,3.67,1.49,5.57,5.46,8.55,7.57.99.7,1.81,2.18,2.51-.01l1.01-12.99,1.43,11.49-.45,15.48c-1.82-.05-.47-2.03-1.99-3.99-.97-1.25-.04-1.11-1.5-.02-3.24,2.42-6.23,6.86-9.48,9.51,1.97,1.48,3.39,3.88,4.98,5.5.12,2.54,2.27,3.34,4,4,.27.1.67-.08,1,0,.11.03.54,1.48,1.99.99.12-3.48-.14-7.01,0-10.5.05-1.23-.76-3.71,1-3.49v30.98h-.99c-.84-1.78,1.35-7.37-1.01-8.99-.09-.41.12-.82-.49-.98-.95,1.27-2.32,2.01-3.5,2.98-.36.3-.65.7-1,1s-.64.69-1,1c-2.31.02-2.91,1.41-4,3-.27.4-.93.79-1,1-1.61.33-3.43-1.02-5-2-4.42-2.77-7.14-6.17-11.35-8.91l-13.62,12.41,13.61,12.42c2.15.38,10.77-11.4,14.35-11.92.5-.07,1.6-.11,2,0,2.63.74,6.48,7.11,8.99,8.52,1.76.99,1.21.47,2.01-.52,1.13-1.4.45-3.13,1.99-2.99l.02,25.47-2-2.5c.19-1.14-.01-2.73,0-4,2.43-1.48.49-3.6,0-5-.17-.48.13-1.37,0-2-.26-.26-1.37.73-1.99,1-2.41,1.06-5.41,3.79-7,6-3.91,5.44,2.1,6.93,6,10.99-.17,1.28,1.49,2.5,0,7-.11.32.12.76,0,1-6.4,2.93-10.38,10.21-17.99,9.98-.31-.23.81-1.34,1-1.99.2-.68,1.21-1.11.57-2.01-.3-.42-7.4-5.89-7.89-5.84-2.82.25-7.28,6.5-9.66,8.36-.04,1,1.42.29,1.99.49,4.5,1.6,8.21.92,12.99,1.01l-5.99,2.99c-.33.03-.67-.02-1,0s-.67-.02-1,0c-.99-1.63-5.99-1.56-6,0-3.65.1-7.34-.05-10.99,0-1.01-1.64-5.05-1.61-6,0-3.32.04-6.67-.03-9.99,0-2.02-1.66-7.78-1.71-9.99,0-1,0-2,0-3,0l-.51-2.01-4.48,2.01c-1,0-2,0-3,0-.67,0-1.33,0-2,0,1.08-3.29-7.42-2.96-6,0-2,0-4,0-6,0-1.67,0-3.33,0-5,0l-.5-.98-.5.98c-.67,0-1.33,0-2,0-1.67,0-3.33,0-5,0l-3.5-2.04-10.49,2.04c-4.32,0-8.67,0-12.99,0,.61-2.97-2.55-3.13-2,0-.67,0-1.33,0-2,0-4.54-1.62-10.81-2.99-14.99,0-2.33,0-4.67,0-7,0l-.45-.74c-.32.15-.45.73-.55.74-.67.08-2.59.15-3,0-.17-.07-.56-1.87-2.48-2.02l-20.51,2.02c-1.33,0-2.66,0-4,0-1.71-1.57-4.21-2.77-5,0-1,0-2,0-3,0,.56-3.03-1.53-1.92-3.45-1.99-4.05-.16-7.74.48-11.72.76-1.41.1-3.28-2.43-2.82,1.24-2.99,0-6,0-8.99,0-.76-1.07-2.66-1.57-3,0-1.67,0-3.33,0-5,0l-.51-.99-1.49.99c-2.66,0-5.33,0-7.99,0-2,0-4,0-6,0-.66-1.58-4.34-1.58-5,0-1.33,0-2.66,0-4,0-3.35-1.66-10.44-1.69-13.99,0-2.66,0-5.33,0-7.99,0,.17-.38-.08-1.38,0-2l-4.48,1.02c-.54.19-.51.51-.51.98-2.66,0-5.33,0-7.99,0-.67,0-1.33,0-2,0l-.51-.99-1.49.99c-.67,0-1.33,0-2,0-7.28-1.95-15.89-.86-23.52-.95-3.97-.05-8.43-2.14-12.45.95-1.33-.03-2.67.03-4,0l-7.51-2c-6.84.66-12.99-.56-18.81-4.16-5.12-3.17-11.66-11.81-12.66-17.82-.15-.92.08-2.03.01-2.99h.98s1.01,1.99,1.01,1.99c.07.32-.08.69,0,1,.29,1.2.09,1.07,1,2,.69.7.1,1.61,2,.52.74-.42,6.84-6.66,6.92-7.15.17-1.01-2.1-3.32-2.93-4.36-1.17-1.47-3.21-3.89-5-4-.69-.58-1.74-.78-2-2-.07-2.87-.98-6.22-1-7.99,2.13-.28,11.04-8.45,11.06-9.48-2.33-4.11-7.6-6.5-10.56-10.5-1-.04-.29,1.42-.49,1.99-1.9,5.37-.08,25.05-.99,25.99-.1.11-2.43.11-3,0,.32-1.49-.45-6.29,0-7,.06-.09,1.35.25,1.75-.19,1.57-1.79-.47-16.76-.75-19.79-.09-.98.04-2.01,0-3-.07-1.66.04-3.33,0-5,.94-.51,1.94-.86,3-1,.65-.08,1.34.06,2,0-.63.44-2.86,1.57-1.99,1.99,2.45,1.18,2.53-2.35,2.99-2.99.28-.38.7-.65,1-1,.74-.21,4.47-2.12,4.66-2.29.93-.83.85-2.16,1.33-2.7.3-.34.36-.81,1-1,.41-.12,2.58-.12,3,0,3.51,1.04,11.15,10.94,13.51,10.75l13.46-12.25-13.62-12.41c-1.77-.32-9.97,9.96-13.35,10.91-.46.13-2.52.12-3,0-2.92-.75-8.08-6.42-9.99-8.99l-.5-7.01c-2.92,2.39-.54,5.8-.5,7.01.02.66,0,1.33,0,2l-1.99,8.99c-.15-2.81.23-5.69-.04-8.51-.15-1.61-.96-1.39-.97-1.48-.21-2.63.19-5.36,0-7.99.89-.65,2.01-.66,3-1,1.48-.51,11.14-8.14,11.55-8.98.5-1.02-1.08-2.16-1.56-3.01-2.33-4.16-2.99-2.32-4.07-3.63-2.04-2.48.06-5.41-4.93-3.37-.29.12-.74-.13-1,0-1.32.67-.75,4.23-3,0,.17-2.28-.25-4.75,0-7,.82-7.51,1.64-11.23,0-18.99-.07-.33.09-.72,0-1,2.7-2.31.34-6,0-7.99-.23-1.35-.95-2.64-1-3-.13-.9,0-2.04,0-3,2.82-.68,3.09.72,4,3,.22.55-.51,2.03.49,1.99l11.5-10.97c-2.72.62-10.43-10.78-11.99-9.01l-1.99,10.99-1.01-11.99c.01-.67-.01-1.33,0-2,.02-1,0-2,0-3,0-.67,0-1.33,0-2,1.38-5.47,1.57-13.92,1.07-19.59-.17-1.87-1.04-3.18-1.07-3.39-.23-2.02-.85-4.02-1-7,3.02.56,1.94-1.53,2-3.45.1-2.99.12-6.1,0-9.08-.08-1.92,1.03-4.01-2-3.45.01-1.33-.06-2.67,0-4,1.31-.48.95-1.9,1-3,.08-1.63.09-3.37,0-5l1.01-1.99h.98c0,2.15-.55,5.24,2,5.98.14-.61-.18-1.63,0-2,2.26-4.24,7.14-5.91,9.92-9.63.14-.87-3.09-4.53-3.93-5.36-.57-1.62-3.35-5.05-4.59-5.87-3.25-2.14-4.59.63-5.4-6.12-.08-.63,0-1.35,0-2s-.01-1.33,0-2c.1-5.27.18-9.41,0-14.99-.11-3.35-.5-8.97,0-11.99.02-.15,1.18-2.39,1.99-1.99.65,9.81-1.29,20.42,1.01,29.97.05.68-.41,2.03.49,1.99l10.43-9.63-9.92-10.36c.22-1.82-.25-5.48.12-5.89.32-.35,2.61-.05,3.46-1.05.93-1.09-3.46-5.87,3.42-3.56v-3.49c4.11-4.06,2.67-3.36.98-7-1.48-3.19-3.8-3.79-4.43-5.04-1.37-2.71.94-5.33-4.86-3.93-.87.21-.69,2.66-2.69,1.97-.06-.92-.99-1.8-1-2-.11-1.99.12-4.01,0-6h1c1.51-3.89,1.41-10.48,1.07-14.61-.14-1.7-1.06-3.16-1.07-3.38-.07-.99.06-2.01,0-3,1.6-7.8,1.32-17.44,1-25.53-.08-1.92,1.03-4.01-2-3.45,0-1.67-.01-3.33,0-5l1.99,1c-.67-1.62,0-3.24,0-4.5v-15.99c0-3.83-.04-5.87-1-9.49-.06-.21-.72-.35-.83-.77-.19-.71.78-1.02.83-1.23,1.21-4.92,2.04-11.33,0-15.99v-112.92c0-.33,0-.67,0-1,1.65-1.04,1-3.79,1.02-5.48.08-7.66.09-15.36,0-23.01-.02-1.69.64-4.44-1.02-5.48,0-.67,0-1.33,0-2l1-39.97c1.69.04,2.13-.67,1.77,1.26-.53,2.89-2.07,7.13.22,9.73.01.34-.07.74,0,1,.1.37-.14.81.51.98l.49-.98c.32-.06.69.09,1,0,1.67-.47,3.44-1,3-3,.34-.33.64-.69,1-1,2.5.33,3.02-2.24,4-3,.28-.22.44-.81,1-1,.44-.15,2.34-.09,3,0,.35.05.74-.09,1,0-.74,3.41,1.27,2.86,2.48,3.9,7.47,6.38,8.19,12.84,16.5,2.1l6.97-7.47c-.34-.87-13.04-12.41-13.97-12.52-3.5-.41-8.31,10.03-13.99,8l1,2.98c-6.08.59-5.65-6.1-12.99-5.99.45-6.64.25-3.06,2.84-6.6,3.69-5.03,7.2-8.29,13.22-10.81,3.6-1.51,7.43.17,7.92-3.57,2.77-.33,6.09.12,8.99,0ZM143.74,102.72c-5.51-.06-11.09-.29-16.49,1.01-1.5.36-1.77-.71-1.49,1.96,3.22-.09,5.86,6.09,8.31,5.87s7.95-6.62,9.67-8.84ZM163.36,114.78l-13.61,12.42,14.34,12.42,13.6-12.42-14.33-12.42ZM223.18,114.74c-1.75,2.53-13.97,10.89-13.45,13.35,3.08,1.76,11.48,11.99,14.3,11.44.87-.17,12.71-11.33,12.56-12.2s-12.49-12.58-13.41-12.59ZM253.16,114.74c-.92,0-13.25,11.69-13.41,12.59s11.69,12.03,12.56,12.2c2.82.55,11.23-9.69,14.3-11.44.52-2.46-11.7-10.81-13.45-13.35ZM282.28,114.78l-13.61,12.42,14.34,12.42,13.61-12.42-14.33-12.42ZM312.26,114.78l-13.61,12.42,14.34,12.42,13.61-12.42-14.34-12.42ZM342.11,114.75l-13.47,12.45c2.81,2.13,11.18,12.95,14.33,12.34.87-.17,12.71-11.33,12.56-12.2s-12.49-12.58-13.41-12.59ZM192.42,115.84c-1.84.51-10.11,9.69-12.68,11.35,2.44,2.09,11.66,12.85,14.32,12.39.95-.16,11.63-10.86,13.62-12.39-4.57-1.83-10.69-12.63-15.25-11.35ZM130.75,144.68c-5.6,3.41-9.55,11.21-16.99,6-.3-.35-.7-.64-1-1-.76-.9-1.46-1.39-2-2-.3-.34-.68-.65-1-1-.15-.16.12-2.53-2.5-2.99-.91-.04-.42,1.31-.49,1.99-.03.33.01.67,0,1-1.64,4.26-1.27,10.87-1.01,15.5.07,1.22-.63,3.31,1.01,3.49,1.38.01,7.62-8.12,10.99-8.99.48-.12,2.55-.13,3,0,2.86.82,11.33,10.66,12.63,10.89,3.27.56,10.54-10.51,14.34-10.91.4-1.46-.4-1.66-.97-2.5-.75-1.1-11.25-10.68-11.99-11.01-.96-.43-3.09.97-4.02,1.54ZM163.36,142.76l-13.6,12.42,14.33,12.42,13.6-12.42-14.33-12.42ZM193.34,142.76l-13.61,12.42c2.1,2.04,12.23,12.78,14.33,12.42l13.61-12.42-14.34-12.42ZM237.68,154.7c-5.49-2.51-9.25-8.53-14.49-11.98-1.77,2.16-14.07,11.11-13.49,13.43,3.6,1.44,11.14,11.99,14.35,11.37,1.14-.22,11.6-11.07,13.64-12.82ZM266.65,156.66c1.49-2.1-11.74-11.87-13.49-13.94l-13.42,12.59c1.31,1.72,11.69,12.11,12.57,12.26,3.27.56,10.54-10.51,14.34-10.91ZM283.16,142.93l-14.49,12.25,13.61,12.42,14.34-12.42-13.46-12.25ZM312.26,142.76l-13.6,12.42c1.85,1.99,12.67,12.71,14.33,12.42l13.61-12.42-14.33-12.42ZM355.45,153.81l-13.36-10.89-13.46,12.26c2.81,2.13,11.18,12.95,14.33,12.34,2.45-3.44,9.59-7.59,11.7-10.27.77-.97,1.46-2.28.79-3.44ZM373.99,166.12c1.65-1.29,11.77-9.92,11.56-10.87l-13.46-12.54c-1.82,2.25-13.95,11.01-13.45,13.37,3.58,1.96,11.12,12,14.37,11.65.61-.06.59-1.3.98-1.61ZM136.74,172.67c-.18-.31.31-1.65-.04-1.92-3.69-2.81-14.95,9.31-17.45,11.93-.66-.19-13.49-13.75-13.49-7.51v14.99c0,.47,1.26,3.42,1.49,4.49,3.48-2.07,9.54-11.37,13.48-9.53,1.43.67,2.45,3.78,5.01,3.54,1.07,1.13,7.37,6.98,8.3,6.85l13.67-12.34c0-1.29-9.58-8.14-10.97-10.49ZM163.36,170.74l-13.61,12.42,14.34,12.42,13.6-12.42-14.33-12.42ZM193.34,170.74l-13.61,12.42c2.1,2.04,12.23,12.78,14.33,12.42l13.61-12.42-14.33-12.42ZM223.17,170.84l-13.46,12.32c2.1,2.04,12.23,12.78,14.33,12.42,1.58-2.29,12.83-10.83,12.56-12.29l-13.43-12.45ZM253.18,170.91c-1.68-.13-13.84,11.9-13.51,13.22l12.63,11.45c2.1.36,12.24-10.38,14.33-12.42l-13.46-12.25ZM282.28,170.74l-13.6,12.42,14.33,12.42,13.61-12.42-14.34-12.42ZM312.26,170.74l-13.61,12.42,14.34,12.42,13.61-12.42-14.33-12.42ZM342.09,170.91l-13.46,12.25c2.81,2.13,11.18,12.95,14.33,12.34,1.25-.24,11.24-10.85,13.62-12.34l-14.49-12.25ZM384.39,185.48c2.58-4.43-10-11.76-12.3-14.78l-13.42,12.59c-.17.94,11.93,12.02,13.42,12.02,3.28,0,8.5-8.95,12.3-9.83ZM431.18,170.74l-13.61,12.42,14.34,12.42,13.6-12.42-14.33-12.42ZM133.38,198.72l-13.6,12.42,14.33,12.42,13.61-12.42c-1.86-1.99-12.67-12.71-14.34-12.42ZM163.36,198.72l-13.61,12.42,14.33,12.42,13.61-12.42-14.33-12.42ZM193.34,198.72l-13.61,12.42c1.86,1.99,12.67,12.71,14.34,12.42l13.6-12.42-14.32-12.42ZM236.67,212.62c1.17-1.65-11.12-12.57-13.5-13.77-4.99,2.96-8.33,8.66-13.47,10.81-1.3,1.83,11.28,12.27,13.47,13.72,3.05.25,9.59-10.48,13.5-10.75ZM253.18,198.82l-13.57,12.32,12.69,12.42c1.67.29,12.47-10.43,14.34-12.42l-13.46-12.32ZM282.28,198.72l-13.6,12.42,14.33,12.42,13.61-12.42-14.34-12.42ZM312.26,198.72l-13.61,12.42,14.33,12.42,13.6-12.42-14.32-12.42ZM342.24,198.72l-13.61,12.42c1.86,1.99,12.67,12.71,14.34,12.42l13.61-12.42-14.34-12.42ZM358.6,212.62c5.36,1.93,8.08,8.24,13.49,10.71,5.3-3.08,9.07-8.04,13.47-12.19l-13.47-12.46c-1.97,1.77-14.86,12-13.48,13.94ZM402.08,198.88l-14.48,12.26,13.6,12.42,14.34-12.42-13.46-12.26ZM431.18,198.72l-13.61,12.42,14.33,12.42,13.6-12.42-14.33-12.42ZM110.76,203.64c-.7-.88-1.83-5.95-4.52-2.02-1.73,2.53.29,16.89-.47,21,2.95.87,1.65-1.66,1.99-1.99,3.27-3.19,7.05-5.97,9.96-9.56-1.76-2.77-4.51-4.36-6.96-7.43ZM133.38,226.7l-13.61,12.42,14.34,12.42,13.61-12.42c-2.1-2.04-12.23-12.78-14.33-12.42ZM163.36,226.7l-13.61,12.42,14.33,12.42,13.6-12.42-14.33-12.42ZM193.34,226.7l-13.61,12.42,14.34,12.42,13.6-12.42-14.33-12.42ZM236.48,237.78l-13.31-10.89-13.49,11.25c0,2.6,11,11.31,13.49,13.22l13.31-10.89c.4-.66.4-2.02,0-2.69ZM239.81,240.49l13.37,10.88,13.46-12.26c-2.1-2.04-12.23-12.78-14.33-12.42-2.07,3.31-10.57,8.58-12.15,10.9-.56.82-.82,2.05-.34,2.89ZM291.06,244.04c1.73-1.63,4.1-2.82,5.55-4.91l-13.6-12.42-14.32,12.42,13.6,12.42c1.26.22,7.31-6.13,8.78-7.5ZM306.21,232.21c-2.57,2.24-5.37,4.23-7.56,6.91l13.61,12.42,14.32-12.42-13.6-12.42c-1.42-.25-5.45,4.35-6.78,5.51ZM355.46,240.49c.48-.84.22-2.08-.34-2.89-1.58-2.32-10.08-7.59-12.15-10.9-1.67-.29-12.47,10.43-14.34,12.42l13.46,12.26,13.37-10.88ZM372.08,226.96l-13.49,11.19c-.32,1.28,11.49,13.12,13.49,13.12,2.88,0,10.67-10.06,13.47-12.16-4.41-4.13-8.15-9.14-13.48-12.16ZM401.2,226.7l-13.61,12.42,14.34,12.42,13.61-12.42c-2.1-2.04-12.23-12.78-14.33-12.42ZM431.18,226.7l-13.61,12.42,14.33,12.42,13.61-12.42-14.33-12.42ZM106.76,230.63c-1.12,3.14-2.13,14.69,0,16.99,1.28,1.38,1,1.19,2.54.05,1.67-1.24,8.69-7.76,8.52-9.45-.07-.71-9.69-7.25-10.57-9.58-1-.04-.29,1.42-.49,1.99ZM133.38,254.68l-13.61,12.42,14.49,12.25,13.46-12.25c-2.1-2.04-12.23-12.78-14.33-12.42ZM163.36,254.68l-13.61,12.42,14.33,12.42,13.61-12.42-14.34-12.42ZM193.35,254.69l-13.62,12.41,14.34,12.42,13.61-12.42-14.33-12.41ZM227.1,276.02c1.65-1.36,9.91-8.01,9.53-9.81l-13.26-11.47-4.7,3.35-8.96,8.98,12.97,12.08c1.52.67,3.49-2.37,4.42-3.14ZM266.65,265.62c-3.41-.35-11.69-11.4-14.35-10.94-2.58,3.57-9.32,7.4-11.53,10.51-.7.98-1.44,1.04-1.14,2.9l13.54,11.27c1.58-2.19,14.99-11.58,13.47-13.73ZM282.28,254.68l-13.6,12.42c2.96,2.14,11.54,11.83,14.41,11.54.91-.09,13.52-10.66,13.52-11.54-1.86-1.99-12.67-12.71-14.34-12.42ZM312.26,254.68l-13.6,12.42,13.45,12.25,14.47-12.25-14.33-12.42ZM328.62,265.62c-1.5,2.12,11.76,11.74,13.47,13.73l14.49-12.25c-2.62-1.32-12.37-12.17-13.62-12.39-3.27-.56-10.54,10.51-14.34,10.91ZM371.23,254.77c-1.59.31-9.81,10.11-12.59,11.44-.5,2.36,11.63,11.12,13.45,13.37l13.47-12.48c-2.81-2.13-11.18-12.95-14.33-12.34ZM401.2,254.68l-13.61,12.42,14.49,12.25,13.46-12.25c-2.1-2.04-12.23-12.78-14.33-12.42ZM431.18,254.68l-13.61,12.42,14.33,12.42,13.61-12.42-14.34-12.42ZM461.16,254.68l-13.61,12.42,14.34,12.42,13.61-12.42-14.34-12.42ZM106.76,257.61c-2.54,3.22-.19,16.22-.99,20.98,1.32,1.48,5.23-4.19,5.99-4.99,1.66-1.75,6.03-6.09,6-7.99-.06-3.39-7.81-4.21-7.03-9-.97-.41-1.75.98-1.97,1.01-.52.06-.98-1.29-2,0ZM131.75,283.59c-.32.17-.63.72-1,1-.97.71-1.76.79-3,2-.17.16.17.83,0,1l-1.33.02c-.67,3.18-8.9,4.2-9.66,4.98-3.87-.46-7.54-8.66-9.99-6-1.32,1.43-1.55,17.75-.83,18.81.1.14,2.17.75,2.82,1.18-.91-3.98,1.8-2.52,2.65-3.29,1.43-1.29,5.07-6.61,6.86-6.79,4.75-.48,4.6,6.76,9.49,6.08,1.26,1.06,5.41,4.84,6.51,4.75l13.46-12.25c-2.59-2.47-12.12-12.69-14.97-12.49l-1,1ZM163.36,282.66l-13.61,12.42,14.33,12.42,13.61-12.42-14.34-12.42ZM193.35,282.67l-13.62,12.41,14.34,12.42,13.61-12.42-14.33-12.41ZM209.7,293.6c-1.56,2.2,11.91,11.62,13.49,13.93l13.42-12.59c.2-1.08-11.28-11.14-13.42-12.4-3.09,0-9.37,10.71-13.49,11.05ZM255.3,283.98c-1.23-.82-1.96-1.64-3.6-.93-.89.39-11.94,11.12-12.07,12.06-.18,1.26,11.8,10.63,13.54,12.42l13.47-12.45c-3.66-3-7.59-8.6-11.34-11.11ZM282.28,282.66l-13.61,12.42,14.48,12.25,13.45-12.25c-2.09-2.05-12.23-12.78-14.33-12.42ZM312.26,282.66l-13.6,12.42,13.45,12.25,14.48-12.25-14.33-12.42ZM328.62,293.6c-1.52,2.14,11.77,11.67,13.47,13.8,1.15,0,13.24-11.38,13.43-12.45.18-1.01-11.69-12.1-12.56-12.25-3.27-.56-10.54,10.51-14.34,10.91ZM371.29,282.7c-2.04.53-9.55,10.01-12.65,11.49-.5,2.36,11.63,11.12,13.45,13.37,1.73-2.57,13.97-10.9,13.45-13.37-3.31-1.76-11.42-12.23-14.25-11.49ZM415.55,293.6c-3.41-.35-11.69-11.4-14.35-10.94l-13.61,12.42,14.48,12.31c1.58-2.32,15.01-11.62,13.47-13.79ZM431.18,282.66l-13.61,12.42,14.33,12.42,13.6-12.42-14.33-12.42ZM147.73,321.58c-4.19-.42-10.59-11.61-14.34-10.86-1.95.39-11.14,10.55-13.61,12.34l14.49,12.25c1.56-2.37,14.96-11.63,13.47-13.73ZM163.36,310.64l-13.61,12.42c3.34,1.98,11.31,11.85,14.42,11.55,2.34-.23,10.58-9.88,13.52-11.55-1.86-1.99-12.67-12.71-14.34-12.42ZM193.39,310.71c-5.35,3.16-9.21,8.13-13.66,12.36l13.46,12.25,14.49-12.25-14.29-12.36ZM222.39,310.68c-2.48.65-9.03,10.14-12.69,11.42-.6,2.43,11.79,10.92,13.49,13.44,1.73-2.57,13.97-10.9,13.45-13.37-3.31-1.76-11.42-12.23-14.25-11.49ZM266.65,321.58c-4.21-.43-10.56-11.59-14.34-10.86-.86.17-12.75,11.12-12.56,12.2s12.29,12.46,13.43,12.45c1.58-2.32,15.01-11.62,13.47-13.79ZM282.28,310.64l-13.61,12.43,14.49,12.25,13.45-12.25c-2.08-2.04-12.25-12.79-14.33-12.43ZM312.27,310.65l-13.61,12.41,13.45,12.25,14.49-12.25c-1.86-1.99-12.66-12.71-14.33-12.41ZM328.62,321.58c-1.59,2.24,12.06,11.42,13.49,13.96,1.98-2.52,13.01-10.29,13.42-12.61.32-1.81-11.2-10.83-13.46-12.41-4.77,2.66-8.1,9-13.45,11.06ZM371.29,310.68c-2.04.53-9.55,10.01-12.65,11.49-.52,2.47,11.72,10.8,13.45,13.37,1.7-2.53,14.09-11.02,13.49-13.44-3.81-1.43-11.1-12.25-14.29-11.42ZM415.55,321.58c-4.21-.43-10.56-11.59-14.34-10.86-.86.17-12.79,10.88-12.56,12.2.19,1.09,12.29,12.46,13.43,12.45,1.5-2.46,14.98-11.66,13.47-13.79ZM107.76,313.57c-.25-.12-.15-1.56-1.99-.99v21.98c1.57,1.76,9.29-7.85,9.99-8.99,1.77-2.08,2.22-2.55,1-5-1.35-2.72-4.75-4.72-7-6-.63-.36-1.33-.7-2-1ZM133.44,338.66c-1.41.38-12.88,10.73-12.62,12.25,4.17,4.46,8.28,9.1,13.43,12.45,1.67-2.63,14.04-11.01,13.48-13.28-3.8-1.42-11.12-12.26-14.29-11.42ZM166.36,339.94c-1.22-.82-1.97-1.65-3.6-.93-1.11.49-13,11.15-13,12.03l14.49,12.25,13.46-12.25c-3.66-3-7.58-8.59-11.34-11.11ZM179.72,349.57c-1.42,2,12.01,11.27,13.47,13.79,5.15-3.34,9.26-7.99,13.43-12.45.41-2.35-10.59-10.22-12.56-12.25-3.25-.57-10.55,10.52-14.35,10.91ZM222.39,338.66c-2.04.53-9.55,10.01-12.65,11.49-.52,2.47,11.72,10.8,13.45,13.37,1.77-2.64,13.85-10.75,13.42-13.34-2.81-2.01-11.7-12.18-14.22-11.53ZM252.37,338.66c-.97.25-12.84,10.98-12.62,12.25.24,1.38,11.74,11.66,13.42,11.67,2.4-1.47,13.78-10.26,13.42-12.39-.15-.92-12.66-11.93-14.22-11.52ZM268.65,351.53c4.04.34,11.4,12.01,14.5,11.77l13.46-12.25c-2.08-2.04-12.25-12.79-14.34-12.43l-13.63,12.91ZM312.3,338.7c-3.21.28-10.62,10.09-13.65,12.35l13.46,12.31,14.48-12.31c-2.05-2.07-12.3-12.53-14.3-12.35ZM334.24,355.93c2.62,2.5,5.2,5.11,7.87,7.57,2.08-1.94,13.8-11.11,13.42-13.32l-13.24-11.49-13.67,11.37c-.52,1.92,4.37,4.66,5.62,5.86ZM371.29,338.66c-.86.22-12.81,11.14-12.62,12.25.41,2.33,11.44,10.1,13.42,12.61,1.77-2.64,13.85-10.75,13.42-13.34-2.81-2.01-11.7-12.18-14.22-11.53ZM401.26,338.66c-1.41.38-12.88,10.73-12.62,12.25,4.17,4.46,8.28,9.1,13.43,12.45,1.62-2.65,13.99-11.21,13.48-13.28-3.79-1.43-11.12-12.27-14.29-11.42ZM431.19,338.63l-13.62,12.41c3.34,1.98,11.31,11.85,14.42,11.55,2.34-.23,10.58-9.88,13.52-11.55-2.09-2.04-12.23-12.78-14.32-12.41ZM447.54,349.57c-1.42,2,12.01,11.27,13.47,13.79,1.14,0,13.24-11.36,13.43-12.45.43-2.44-10.71-9.94-12.56-12.25-3.27-.56-10.54,10.52-14.34,10.91ZM106.76,342.55c-1.13,3.17-2.13,14.63,0,16.99,1.26,1.4,2.37-.13,3.49-1.01s7.33-7.05,7.43-7.62c.44-2.54-8.94-7.97-10.43-10.35-1-.04-.29,1.42-.49,1.99ZM133.44,366.64c-1.41.38-12.88,10.73-12.62,12.25,3.96,4.39,8.12,8.86,13.42,11.67,1.05,0,13.76-11.38,13.49-12.49-3.79-1.43-11.12-12.27-14.29-11.42ZM163.37,366.65l-13.62,12.38c3.78,1.93,10.84,11.57,14.5,11.48,2.69-.07,9.92-10.23,13.45-11.47-2.45-2.08-11.66-12.85-14.32-12.38ZM197.12,387.94c1.78-1.36,9.82-8,9.51-9.78-1.62-2.12-11.51-11.64-13.24-11.49l-3.7,2.34-9.94,9.94c3.2,1.77,9.68,10.05,12,11.1,3.34,1.5,3.87-.96,5.37-2.11ZM222.39,366.64c-.86.22-12.77,11.38-12.62,12.25.41,2.27,11.73,9.52,13.41,12.61,1.77-2.63,13.86-10.76,13.42-13.33-2.46-2.18-11.89-12.13-14.21-11.53ZM252.37,366.64c-.97.25-12.84,10.98-12.62,12.25.24,1.38,11.74,11.66,13.42,11.67,2.25-1.6,13.72-10.56,13.42-12.39-.15-.92-12.66-11.93-14.21-11.53ZM296.63,377.55c-3.79-.39-11.1-11.48-14.35-10.91-4.71,4.12-9.95,7.71-13.63,12.87,5.5,2.51,9.24,8.53,14.49,11.97,2.96-4.27,9.48-7.95,12.52-11.42.76-.87,1.3-1.11.97-2.51ZM298.64,377.55c-.73,1.02.42,1.78,1.06,2.42,1.59,1.59,11.33,10.28,12.59,10.38,3.2.26,10.79-9.8,14.31-11.32.02-.92-12.71-12.16-13.61-12.34-2.64-.53-9.64,7.75-11.87,9.87-.83.79-2.39.88-2.47.99ZM341.31,366.64c-.86.22-12.77,11.37-12.61,12.24.34,1.91,11.86,9.63,13.41,12.62,1.85-2.31,13.85-10.88,13.42-13.34-2.24-2.32-11.94-12.12-14.22-11.52ZM371.29,366.64c-.86.22-12.81,11.15-12.62,12.25.43,2.44,11.64,9.59,13.42,12.61,1.63-2.97,13.84-10.85,13.42-13.33-.16-.92-12.67-11.93-14.22-11.53ZM395.15,372.11c-1.45,1.31-6.85,4.83-6.51,6.78l13.42,12.61,13.45-12.55-12.65-12.31c-2.38-.63-5.9,3.83-7.71,5.47ZM417.56,377.55c-.73,1.02.42,1.78,1.06,2.42,1.47,1.47,11.56,10.52,12.48,10.61,3.75.37,10.29-9.91,14.42-11.54-4.45-4.23-8.31-9.2-13.66-12.36-1.95-.29-9.93,8.09-11.83,9.89-.83.79-2.39.88-2.47.99ZM459.13,368.09c-1.7,1.33-11.77,9.92-11.56,10.87l13.46,11.6c1.92-.01,13.72-10.67,13.42-12.39-2.37-2.69-11.37-12-14.35-11.68-.6.06-.58,1.3-.97,1.61ZM106.76,388.52c2.18-.52,10.7-8.39,10.92-9.63.39-2.23-9.12-8.36-10.92-10.35v19.99ZM133.45,394.63c-1.74.47-12.9,10.65-12.63,12.24l13.42,12.61c1.48-2.79,13.94-11.6,13.49-13.44-3.79-1.43-11.11-12.26-14.28-11.41ZM163.4,394.72c-1.97.34-12.87,10.59-12.6,12.15,2.87,2.46,9.93,12.02,13.37,11.68,3.05-.3,9.75-10.16,13.52-11.54-2.89-2.17-11.02-12.85-14.29-12.29ZM182.28,404.1c-.88.93-2.89,1.22-2.55,2.87l13.47,12.52,13.42-12.61c.34-1.93-10.79-11.5-13.42-12.39-1.35,0-9.36,7.96-10.92,9.62ZM230.3,399.9c-1.75-1.54-6.08-5.75-7.92-5.27-.85.22-12.81,11.14-12.62,12.25.25,1.43,12.63,11.95,14.22,11.53,1.1-.29,12.43-10.5,12.61-11.53-1.1-2.41-4.29-5.2-6.29-6.97ZM261.08,411.92c1.36-1.28,5.85-3.8,5.5-5.77-2.13-1.71-11.16-11.15-12.62-11.53-2.36-.62-12.08,9.08-14.22,11.52-.45,2.57,11.65,10.71,13.42,13.34,2.54-2.62,5.28-5.07,7.91-7.56ZM296.63,405.53c-4.2-.42-10.59-11.61-14.34-10.86-1.35.27-12.82,10.74-12.56,12.2,3.96,4.39,8.12,8.86,13.42,11.67.82,0,11.51-9.36,12.52-10.5.76-.87,1.29-1.11.97-2.51ZM326.62,407.49c.55-.76-12.59-12.62-13.63-12.82-2.64-.52-9.63,7.75-11.87,9.87-1.38,1.3-4.21.61-1.41,3.41,1.59,1.59,11.33,10.28,12.59,10.38,3.79.31,10.19-10.27,14.33-10.84ZM341.31,394.62c-.83.22-12.47,10.66-12.65,11.49-.45,2.17,11.92,10.45,13.45,13.37,1.77-2.63,13.87-10.77,13.42-13.34-2.15-2.53-11.63-12.2-14.22-11.52ZM371.29,394.62c-.86.22-12.81,11.15-12.62,12.25.43,2.44,11.64,9.59,13.42,12.61,1.63-2.97,13.84-10.85,13.42-13.33-.16-.92-12.67-11.93-14.22-11.53ZM401.27,394.62c-1.16.3-12.87,10.83-12.62,12.25.4,2.32,11.44,10.1,13.42,12.61,1.48-2.79,13.94-11.6,13.49-13.44-3.8-1.44-11.1-12.25-14.29-11.42ZM417.56,405.53c-.73,1.02.42,1.78,1.06,2.42,1.42,1.42,11.59,10.52,12.4,10.54,4,.11,10.36-9.71,14.5-11.47-3.04-2.26-10.39-12.05-13.64-12.32-2.63-.22-9.63,7.75-11.85,9.85-.83.79-2.39.88-2.47.99ZM106.76,416.5c1.9-1.8,11.32-8.05,10.92-10.36-.33-1.89-8.88-8.12-10.92-9.63v19.99ZM253.16,421.52l-13.42,12.61c-.45,2.58,11.75,10.5,13.42,13.34,1.4-2.72,13.18-11.23,13.42-12.61.38-2.25-11.84-10.37-13.42-13.33ZM402.06,421.52c-1.86,2.31-13.85,10.88-13.42,13.34l13.42,12.61c1.27-2.48,13.26-11.68,13.45-12.58.45-2.17-11.92-10.45-13.45-13.37ZM467.52,426.5c-2.68-1.37-4.55-2.63-6.5-4.98l-13.49,13.46,13.49,12.49c2.79-3.43,7.68-5.77,10.49-8.98h3.99c-.09-2.95.91-9.05-3.99-7.99-.65-.66-1.34-1.35-2-2,.56-2.89-1.28-1.63-2-2ZM133.44,422.6c-1.41.38-12.88,10.73-12.62,12.25,3.96,4.39,8.12,8.86,13.42,11.67,1.03,0,13.58-11.49,13.42-12.4-2.82-1.99-11.71-12.19-14.22-11.52ZM167.14,443.91c1.78-1.37,9.82-8,9.5-9.78-2.49-2.28-10.15-11.96-13.24-11.42-3.87.67-9.47,9.74-13.66,11.28.55,1.23,11.59,11.41,13.04,12.02,2.76,1.16,3.2-1.2,4.36-2.1ZM199.12,441.9c2.64-2.16,6.27-4.49,7.5-7.78-.2-1.14-11.18-11.13-12.63-11.52-2.82-.76-10.92,9.74-14.24,11.47-.27,1.24.79,1.69,1.46,2.4,1.1,1.16,10.47,9.71,11.19,9.89,2.55.66,5.02-3.09,6.71-4.48ZM222.39,422.61c-.86.22-12.77,11.37-12.62,12.25.19,1.04,12.44,11.67,13.41,11.67,2.31-1.58,13.77-10.36,13.42-12.39-.28-1.6-12.49-11.97-14.22-11.52ZM282.39,422.64c-2.08.51-12.95,10.6-12.67,12.21,3.87,4.48,8.36,8.54,13.42,11.67l2.05-.98,11.44-11.53c-3.53-1.65-11.27-12.09-14.24-11.36ZM311.33,422.6l-12.7,12.37c3.61,1.41,11.12,11.98,14.34,11.34,1.6-.32,12.84-10.63,12.57-12.19-2.57-2.59-10.78-12.4-14.21-11.52ZM341.31,422.6c-.86.22-12.76,11.37-12.61,12.24s12.52,11.67,13.41,11.67c2.4-1.46,13.79-10.27,13.42-12.39-.29-1.68-12.29-12.03-14.22-11.52ZM371.29,422.61c-.97.25-12.84,10.97-12.62,12.25l13.42,11.67c1.07,0,13.61-11.27,13.41-12.39-.26-1.44-12.62-11.94-14.21-11.52ZM434.96,443.91c1.78-1.37,9.82-8,9.5-9.78-2.49-2.28-10.15-11.96-13.24-11.42-3.87.67-9.47,9.74-13.66,11.28.55,1.23,11.59,11.41,13.04,12.02,2.76,1.16,3.2-1.2,4.36-2.1ZM134.24,449.5c-1.86,2.31-13.85,10.88-13.42,13.34,3.87,4.48,8.36,8.54,13.42,11.67,1.89-1.45,13.27-10.77,13.45-11.64.45-2.17-11.92-10.45-13.45-13.37ZM223.18,449.5c-1.67,2.85-13.85,10.74-13.42,13.34.15.88,11.45,10.35,13.42,11.67,2.24-1.59,13.73-10.57,13.42-12.39-.43-2.47-11.54-9.79-13.42-12.61ZM253.16,449.5c-4.08,4.77-10.47,7.58-13.42,13.34.21,1.21,12.28,11.67,13.42,11.66,2.24-1.59,13.73-10.56,13.41-12.39s-11.87-9.65-13.41-12.62ZM283.14,449.52l-13.42,12.59c-.26,1.46,11.21,11.94,12.56,12.2,3.21.64,10.74-9.94,14.35-11.35.37-1.46-12-10.89-13.49-13.44ZM342.11,449.5c-1.53,2.91-13.9,11.19-13.45,13.37.18.87,11.56,10.19,13.45,11.64,1.64,0,11.75-9.6,13.42-11.66.43-2.46-11.56-11.03-13.42-13.34ZM372.08,449.5c-1.78,3.02-12.99,10.17-13.42,12.61-.32,1.82,11.18,10.8,13.42,12.39,1.97-1.32,13.27-10.79,13.42-11.67.43-2.6-11.74-10.49-13.42-13.33ZM402.06,449.5l-13.42,12.61c-.3,1.73,11.49,12.38,13.42,12.39,1.89-1.44,13.27-10.77,13.45-11.64.45-2.17-11.92-10.45-13.45-13.37ZM475.52,461.49c-5.72-2.27-8.81-8.91-14.5-11.83-1.66,2.7-13.87,11.11-13.44,13.2.18.87,11.56,10.19,13.45,11.64,1.68,0,15.06-12.21,14.49-13.01ZM163.46,450.61c-2.15.32-12.91,10.75-12.65,12.23,1.67,2.13,11.42,11.88,13.27,11.55,2.36-1.98,12.71-9.77,12.7-12.43l-10.52-10.55c-.83-.86-1.66-.97-2.8-.8ZM179.72,463.45c.08.11,1.64.21,2.47.99,2.03,1.93,9.18,10.06,11.02,10.06,2.4-1.46,13.79-10.27,13.42-12.39-.32-1.82-10.94-10.35-13.42-11.67-.78,0-10.91,8.78-12.03,10-.66.72-2.19,1.99-1.46,3.01ZM326.62,461.49c-4.78-.85-9.92-11.12-14.52-10.99-.81.02-11.49,9.3-12.49,10.45-2.61,2.98.09,2.16,1.5,3.5,2.24,2.12,9.22,10.39,11.87,9.86,1.45-.29,14.18-12.04,13.64-12.81ZM417.55,461.49c-.55.78,11.87,12.02,13.64,12.86,2.67.47,11.88-10.29,14.32-12.38-3.15-1.4-11.1-11.41-13.45-11.48-4.6-.12-9.73,10.15-14.52,10.99ZM134.25,477.64c-5.15,3.34-9.26,7.99-13.43,12.45-.36,2.09,10.92,11.16,13.42,12.39,1.89-1.45,13.27-10.77,13.45-11.64.44-2.1-11.77-10.51-13.44-13.2ZM207.7,489.47c-5.72-2.27-8.81-8.91-14.5-11.83-2.82,4.04-9.9,7.92-12.52,11.28-2.47,3.17,0,2.08,1.51,3.51,2.24,2.12,9.22,10.38,11.87,9.87.92-.18,14.18-12.06,13.64-12.82ZM223.18,477.48c-1.63,2.98-13.84,10.85-13.42,13.34.15.88,11.44,10.35,13.42,11.67,2.24-1.59,13.73-10.57,13.42-12.39-.43-2.47-11.54-9.79-13.42-12.61ZM253.16,477.5c-.92,0-13.26,11.68-13.42,12.59-.35,2.03,11.11,10.81,13.42,12.39,1.97-1.32,13.27-10.79,13.42-11.67.43-2.58-11.72-10.5-13.42-13.31ZM296.63,491.43c1.31-1.85-12.13-11.27-13.49-13.93l-14.48,11.97c-.43.83,12.55,12.61,13.62,12.82,2.64.52,9.64-7.75,11.87-9.87.83-.78,2.39-.88,2.47-.99ZM312.11,477.71l-13.46,12.25c2.44,2.08,11.68,12.86,14.33,12.39l13.61-12.39-14.49-12.25ZM332.04,494.03c1.46,1.39,9.02,8.45,10.07,8.45,2.31-1.58,13.77-10.36,13.42-12.39-.16-.91-12.5-12.58-13.42-12.59l-13.47,12.51c-.2.98,2.56,3.22,3.4,4.02ZM372.08,477.48c-1.86,2.32-13.83,10.86-13.42,13.34l13.42,11.67c1.97-1.32,13.27-10.79,13.42-11.67.43-2.6-11.74-10.49-13.42-13.34ZM402.06,477.5c-2.08,1.93-13.8,11.11-13.42,13.31,1.67,2.07,11.78,11.66,13.42,11.66,1.89-1.45,13.27-10.76,13.45-11.63.5-2.37-11.88-10.5-13.45-13.34ZM162.43,478.6c-2.55.66-8.98,10.08-12.68,11.36,1.86,1.99,12.66,12.71,14.33,12.41l13.62-12.41c-4.12-1.7-11-12.46-15.26-11.36ZM431.2,478.67c-3.51.33-9.72,9.72-13.63,11.28,1.86,1.99,12.68,12.72,14.34,12.43l13.6-12.43c-3.16-1.98-11.24-11.57-14.32-11.29ZM147.73,519.42c1.49-2.1-11.96-11.42-13.47-13.72l-14.49,12.24c2.45,1.78,11.61,11.94,13.61,12.34,3.73.76,10.16-10.45,14.34-10.86ZM159.15,527.01c1.08.86,3.91,3.53,4.94,3.35l13.61-12.43-13.61-12.42c-1.93,1.35-13.04,10.75-13.26,11.6-.64,2.43,6.26,8.24,8.33,9.89ZM193.19,505.62l-13.46,12.31c2.09,2.05,12.23,12.78,14.33,12.42l13.61-12.42-14.48-12.31ZM223.18,505.46c-1.73,2.57-13.97,10.9-13.45,13.37,3.08,1.76,11.48,11.99,14.3,11.44,1.59-.31,9.81-10.11,12.59-11.44.52-2.47-11.72-10.8-13.45-13.37ZM253.17,505.62c-1.14,0-13.24,11.36-13.43,12.45-.32,1.82,11.18,10.8,13.42,12.39l13.45-11.63c.51-2.4-11.68-10.66-13.44-13.2ZM283.16,505.69l-14.49,12.25,13.61,12.43c2.09.37,12.25-10.39,14.34-12.43l-13.46-12.25ZM312.11,505.69l-13.45,12.25c2.09,2.05,12.23,12.78,14.33,12.42l13.61-12.42-14.49-12.25ZM328.62,519.42c3.81.39,11.07,11.47,14.34,10.91.87-.15,12.78-10.99,12.56-12.25-.16-.91-12.5-12.58-13.42-12.59-1.57,2.31-15.04,11.73-13.49,13.93ZM372.08,505.46c-1.86,2.32-13.83,10.86-13.42,13.34l13.42,11.67,13.42-11.67c.43-2.59-11.64-10.7-13.42-13.34ZM399.15,508.01c-4.05,3.12-7.3,7.04-11.55,9.92,1.91,1.97,12.63,12.5,14.3,12.35,5.43-2.78,9.11-8.33,13.65-12.35-3.07-2.01-10.54-10.91-12.95-12.02-1.87-.86-2.69,1.53-3.44,2.1ZM431.18,505.52l-13.61,12.42c2.09,2.04,12.23,12.78,14.33,12.41l13.62-12.41-14.33-12.42ZM458.89,529.04c1.02.98,2.18,1.56,3.6.93,1.1-.49,13.03-11.15,13.01-12.03l-14.48-12.31-13.46,12.34,11.33,11.08ZM106.76,528.43c1.8-2,11.31-8.13,10.92-10.35-.22-1.24-8.74-9.11-10.92-9.63v19.99ZM488.51,527.43c1.67-1.96,1.19-12.28,1.01-15.5-.07-1.2.57-3.48-1.01-3.49-2.22.99-11.24,8.43-10.92,10.35,2.83,2.8,5.9,5.56,8.92,8.15,1.22,1.05.82,1.87,2,.49ZM106.76,536.42c.09-1.62,1.92-4.59.99-6.99-2.2.5-1.94,4.71-2.03,6.45-.32,6.23-.21,13.78.04,20.05.1,2.53-.45,1.57,1,.48,1.22-.92,12.47-10.31,11.99-10.97-4.92-1.36-6.95-7.43-11.99-9.01ZM127.17,552.99c1.29,1.08,5.9,5.43,6.89,5.28,5.35-3.16,9.21-8.13,13.66-12.36l-14.02-12.1-13.92,12.1c2.41,2.34,4.84,4.94,7.4,7.08ZM163.36,533.5l-13.61,12.42,14.34,12.42,13.6-12.42-14.33-12.42ZM193.19,533.67l-13.46,12.25c2.1,2.04,12.23,12.78,14.33,12.42l13.61-12.42-14.49-12.25ZM223.18,533.46c-1.88,2.3-13.83,10.85-13.42,13.32,2.57,2,11.79,11.96,14.27,11.48.86-.17,12.75-11.12,12.56-12.2-.16-.91-12.5-12.59-13.42-12.6ZM266.65,547.4c1.52-2.14-11.77-11.67-13.47-13.8-1.16,0-13.23,11.38-13.42,12.45-.15.87,11.69,12.1,12.56,12.25,3.27.56,10.54-10.51,14.34-10.91ZM283.16,533.67l-14.49,12.25,13.61,12.43c2.08.37,12.26-10.38,14.33-12.43l-13.45-12.25ZM312.11,533.67l-13.45,12.25c2.08,2.04,12.25,12.79,14.33,12.43l13.61-12.43-14.49-12.25ZM328.62,547.4c4.21.43,10.56,11.59,14.34,10.86.87-.17,12.71-11.33,12.56-12.2s-12.49-12.59-13.41-12.59c-1.58,2.31-15.04,11.73-13.49,13.93ZM372.08,533.44c-1.82,2.25-13.95,11.01-13.45,13.37,2.78,1.33,11,11.13,12.59,11.44,3.21.63,10.75-9.93,14.35-11.37.6-2.43-11.79-10.92-13.49-13.44ZM387.57,545.44c1.51,1.91,12.71,12.71,13.63,12.87,2.67.46,11.88-10.3,14.33-12.39l-13.46-12.31c-5.69,2.92-8.78,9.56-14.5,11.83ZM431.18,533.5l-13.6,12.42,14.33,12.42,13.6-12.42-14.33-12.42ZM133.38,561.48l-13.61,12.42,13.61,12.42c2.1.36,12.24-10.38,14.33-12.42l-14.33-12.42ZM163.36,561.48l-13.61,12.42c1.86,1.99,12.67,12.71,14.34,12.42l13.61-12.42-14.33-12.42ZM186.29,567.98c-2.05,1.94-4.78,3.5-6.56,5.91l13.62,12.41,14.33-12.41-13.61-12.42c-1.29-.23-6.41,5.22-7.78,6.51ZM223.17,561.58l-13.46,12.32c2.45,2.09,11.66,12.85,14.33,12.39,1.79-.31,9.43-10.39,12.64-11.42.43-1.71-11.17-12.04-13.5-13.28ZM266.65,575.38c1.52-2.14-11.77-11.67-13.47-13.8-1.16,0-13.23,11.38-13.42,12.45-.15.87,11.69,12.1,12.56,12.25,3.27.56,10.54-10.51,14.34-10.91ZM282.28,561.48l-13.6,12.42,14.33,12.42,13.61-12.42-14.33-12.42ZM312.26,561.48l-13.6,12.42c1.86,1.99,12.66,12.71,14.33,12.42l13.61-12.42-14.33-12.42ZM342.09,561.58l-13.46,12.32c2.1,2.04,12.23,12.78,14.33,12.42,1.69-2.61,12.95-10.07,12.56-12.28-.19-1.07-12.29-12.47-13.43-12.46ZM385.57,575.38c1.56-2.2-11.91-11.62-13.49-13.93-1.94,1.8-14.01,11.33-13.49,13.42l13.5,11.16c2.51.18,9.95-10.39,13.48-10.65ZM402.08,561.65l-14.49,12.25,13.61,12.42c2.1.36,12.24-10.38,14.33-12.42l-13.46-12.25ZM431.18,561.48l-13.61,12.42,14.34,12.42,13.6-12.42-14.33-12.42ZM472.09,570.82c-1.38-1.32-10.1-9.49-10.93-9.34l-13.61,12.42c1.86,1.99,12.67,12.71,14.34,12.42l13.61-12.42c-1.45-.77-2.3-2.02-3.41-3.07ZM128.75,593.38c-3.86-.33-4.04,3.11-5.99,4.47-5.9,4.1-6.56-1.68-11.99-3.47-.6-.61-1.39-1.44-2-2-.87-.81-.83-2.57-2.99-1.99.53,3.11-.75,22.11.06,22.92.21.21,4.83.58,5.93,1.05-2.41-3.82,3.36-9.25,6.52-11.04,1.42-.8,2.41.15,2.48.05l13.36,10.92,13.61-12.42-13.61-12.42c-1-.17-4.22,2.97-5.36,3.93ZM163.36,589.46l-13.6,12.42,14.33,12.42,13.61-12.42-14.33-12.42ZM193.34,589.46l-13.61,12.42c1.86,1.99,12.67,12.71,14.34,12.42l13.6-12.42-14.33-12.42ZM223.17,589.56c-1.88,1.96-14.04,11.05-13.48,13.29l13.5,11.19,13.49-11.19c.43-1.71-11.18-12.03-13.5-13.29ZM253.18,589.62l-3.54,2.25-10.04,10.01,12.7,12.39c2.67.46,11.88-10.3,14.33-12.39l-13.46-12.26ZM282.28,589.46l-13.6,12.42,14.33,12.42,13.61-12.42-14.34-12.42ZM312.26,589.46l-13.61,12.42,14.34,12.42,13.6-12.42-14.33-12.42ZM342.09,589.62l-13.46,12.26c2.1,2.04,12.23,12.78,14.33,12.42,1.75-2.53,12.71-10.6,12.69-12.43l-10.03-10-3.54-2.25ZM358.6,603.36c3.91.27,10.44,11,13.5,10.75,2.38-1.9,12.51-9.6,12.51-12.23,0-1.73-10.92-12.37-12.54-12.23-2.19,1.45-14.77,11.89-13.47,13.72ZM406.98,609.79c2.97-2.53,5.99-4.93,8.56-7.91l-13.46-12.25-14.49,12.25,13.61,12.42c1.59.26,4.54-3.46,5.78-4.51ZM431.18,589.46l-13.61,12.42,14.33,12.42,13.61-12.42-14.33-12.42ZM461.16,589.46l-13.61,12.42c1.86,1.99,12.67,12.71,14.34,12.42l13.6-12.42-14.33-12.42ZM488.51,593.38c-1.28-1.38-1-1.2-2.54-.05-.96.71-7.96,7.42-8.07,7.97-.43,2.08,2.81,4.46,4.62,6.07-.01,2.49,5.35,6.57,6.99,5,.69-.66.25-17.65-.99-18.99ZM133.38,617.44l-13.6,12.42,14.33,12.42,13.61-12.42c-1.86-1.99-12.67-12.71-14.34-12.42ZM172.14,634.78c1.73-1.63,4.1-2.82,5.55-4.91l-13.6-12.42-14.33,12.42,13.6,12.42c1.26.22,7.31-6.13,8.78-7.5ZM193.34,617.44l-13.61,12.42c1.86,1.99,12.67,12.71,14.34,12.42l13.6-12.42-14.32-12.42ZM236.67,628.38c-5.36-1.93-8.08-8.24-13.49-10.71-5.3,3.08-9.07,8.04-13.47,12.19l13.46,12.23c1.4.12,11.37-9.51,12.53-11.21.57-.84,1.37-1.04.97-2.5ZM252.3,617.44l-13.61,12.42,14.34,12.42,13.61-12.42c-2.1-2.04-12.23-12.78-14.33-12.42ZM282.28,617.44l-13.6,12.42,14.33,12.42,13.61-12.42-14.34-12.42ZM312.26,617.44l-13.61,12.42,14.34,12.42,13.6-12.42-14.32-12.42ZM342.24,617.44l-13.61,12.42c1.86,1.99,12.67,12.71,14.34,12.42,1.75-2.54,12.71-10.59,12.69-12.43l-13.42-12.41ZM372.1,617.57l-13.48,12.29,13.48,12.29,13.46-12.29-13.46-12.29ZM401.2,617.44l-13.61,12.42,14.49,12.23,13.46-12.23c-1.86-1.99-12.67-12.71-14.34-12.42ZM431.18,617.44l-13.61,12.42,14.33,12.42,13.61-12.42-14.33-12.42ZM461.16,617.44l-13.61,12.42c1.86,1.99,12.67,12.71,14.34,12.42l13.6-12.42-14.32-12.42ZM163.36,645.42l-13.6,12.42,14.33,12.42,13.6-12.42-14.33-12.42ZM193.35,645.43l-13.62,12.41,13.46,12.26,14.49-12.26-14.33-12.41ZM252.31,645.46c-1.58.27-10.56,11.18-13.61,12.39l14.49,12.26,13.46-12.26c-2.45-2.09-11.66-12.85-14.33-12.39ZM282.28,645.42l-13.6,12.42,14.32,12.42,13.61-12.42-14.34-12.42ZM306.21,650.93c-2.57,2.24-5.37,4.23-7.56,6.91l13.61,12.42,14.33-12.42-13.6-12.42c-1.42-.25-5.45,4.35-6.78,5.51ZM355.45,659.21c.66-1.16-.02-2.46-.79-3.44-2.15-2.72-9.29-6.78-11.7-10.35-2.1-.36-12.24,10.38-14.33,12.42l13.46,12.32,13.36-10.95ZM384.26,655.64c-1.16-1.3-11.18-9.95-12.18-9.95-1.07,0-2.15,1.02-2.99,1.66l-10.48,10.47,13.48,12.32c.88-.01,12.5-10.61,13-11.77.4-.93-.22-2.03-.83-2.72ZM390.18,659.73c1.65,1.78,10.32,10.51,11.9,10.37l13.46-12.26c-2.1-2.04-12.23-12.78-14.33-12.42l-13.61,12.42c.65.9,1.87,1.11,2.59,1.88ZM438.12,650.76c-1.27-1.06-6-5.51-6.94-5.34l-13.61,12.42,14.33,12.42,13.6-12.42c-2.4-2.35-4.83-4.94-7.39-7.08ZM461.17,645.43l-13.62,12.41c1.86,1.99,12.67,12.71,14.34,12.42l13.6-12.42-14.32-12.41ZM221.4,646.52c-2.67.8-8.8,9.36-11.69,11.32l13.46,12.29c2.36-1.22,13.83-11.47,13.46-13.18-4.52-2.58-9.95-12.01-15.23-10.43ZM123.18,688.9c1.56,1.49,9.91,9.27,11.08,9.17l13.46-12.25c-2.1-2.04-12.23-12.78-14.33-12.42l-13.61,12.42c1.45.77,2.3,2.02,3.41,3.07ZM163.36,673.4l-13.6,12.43,14.33,12.42,13.6-12.42c-1.85-1.99-12.68-12.72-14.34-12.43ZM193.39,673.46c-5.35,3.16-9.21,8.13-13.66,12.36l13.46,12.25,14.49-12.25-14.29-12.36ZM223.36,673.47l-13.67,11.38c-.56,2.24,11.6,11.33,13.48,13.29,2.33-1.28,13.83-11.47,13.46-13.21l-13.27-11.46ZM266.65,684.34c-4.21-.43-10.56-11.59-14.34-10.86-.99.19-13,11.35-12.71,13.26.14.88,12.18,9.57,13.56,11.54,1.58-2.31,15.04-11.73,13.49-13.93ZM271.26,687.71c1.65,1.78,10.3,10.49,11.9,10.36l13.46-12.25-14.34-12.42-13.61,12.42c.65.9,1.87,1.11,2.59,1.88ZM312.26,673.4l-13.6,12.42,14.33,12.42,13.61-12.42-14.34-12.42ZM342.29,673.46c-5.35,3.16-9.21,8.13-13.66,12.36l13.46,12.25c1.68.13,13.75-11.82,13.46-13.14l-13.26-11.47ZM372.26,673.47l-13.62,11.46c-.45,2.1,11.41,11.51,13.45,13.31,2.03-1.81,13.9-11.22,13.45-13.31l-13.27-11.46ZM401.2,673.4l-13.61,12.42,14.49,12.25,13.46-12.25c-1.86-1.99-12.67-12.71-14.34-12.42ZM431.18,673.4l-13.6,12.42,14.33,12.42,13.6-12.42-14.33-12.42ZM133.39,701.42c-.95.16-11.63,10.86-13.62,12.39l14.49,12.25,13.46-12.25c-2.45-2.09-11.66-12.85-14.33-12.39ZM163.36,701.38l-13.6,12.43,14.33,12.42,13.6-12.42c-1.85-1.99-12.68-12.72-14.34-12.43ZM193.39,701.45c-5.35,3.16-9.21,8.13-13.66,12.36l13.46,12.25,14.49-12.25-14.29-12.36ZM209.79,712.39c-1.09,2.72,11.45,11.47,13.39,13.87,2-1.87,13.9-11.23,13.45-13.35-2.78-1.33-11-11.13-12.59-11.44-3.27-.64-10.41,9.77-14.24,10.93ZM252.31,701.47c-.87.17-12.71,11.33-12.56,12.2s12.49,12.59,13.41,12.6c1.77-2.16,14.07-11.11,13.49-13.43-3.6-1.44-11.14-11.99-14.35-11.37ZM282.28,701.38l-13.61,12.42,14.49,12.25,13.46-12.25c-2.09-2.04-12.23-12.78-14.33-12.42ZM312.27,701.39l-13.61,12.41,14.33,12.42,13.61-12.42c-1.86-1.99-12.66-12.71-14.33-12.41ZM342.28,701.46l-13.67,11.38c-.56,2.24,11.6,11.33,13.48,13.29,2.33-1.28,13.83-11.47,13.46-13.21l-13.27-11.46ZM371.29,701.42c-2.04.53-9.55,10.01-12.65,11.49-.45,2.12,11.44,11.49,13.45,13.35,1.75-2.53,13.97-10.89,13.45-13.35-3.31-1.76-11.42-12.23-14.25-11.49ZM401.2,701.38l-13.61,12.42,14.48,12.31,13.46-12.31c-2.09-2.04-12.23-12.78-14.33-12.42ZM431.18,701.38l-13.6,12.42,14.33,12.42,13.61-12.42-14.34-12.42ZM461.21,701.45c-5.35,3.16-9.21,8.13-13.66,12.36l13.46,12.25,14.49-12.25-14.29-12.36ZM143.74,738.28c-1.57-1.97-7.48-9.02-9.49-9.02-2.69,0-5.12,6.02-8.49,6.05-.28,2.67-.01,1.6,1.49,1.96,5.4,1.3,10.98,1.07,16.49,1.01ZM173.72,738.29c-.84-2.02-9.04-9.16-10.36-8.93l-9.63,8.93h19.99ZM203.7,738.29c-1.87-2.34-9.02-9.28-11.42-9.05-.62.06-7.52,7.79-8.57,9.05h19.99ZM232.68,738.29c-1.45-1.89-7.51-9.01-9.32-8.85-2.54.23-7.96,6.62-9.67,8.85h18.99ZM262.66,738.29c-1.71-2.23-7.13-8.63-9.67-8.85l-10.32,8.85h19.99ZM292.64,738.29c-1.16-2.13-8.42-9.23-10.35-8.89l-9.63,8.89h19.99ZM322.62,738.29l-9.63-8.93c-1.32-.23-9.52,6.91-10.36,8.93h19.99ZM332.61,738.29h18.99c.62-2.36-.6-1.69-1.28-2.29-1.47-1.3-6.86-6.67-8.04-6.57-2.53.22-7.96,6.62-9.67,8.85ZM381.58,738.29c-1.56-1.98-7.49-9.03-9.49-9.03-1.28,0-6.67,5.37-8.22,6.74-.68.6-1.9-.07-1.28,2.29h18.99ZM411.56,738.29c-1.56-1.98-7.49-9.03-9.49-9.03-1.49,0-8.88,7.38-10.49,9.03h19.99ZM441.54,738.29c-.75-1.87-9.37-9.1-10.36-8.93l-9.63,8.93h19.99Z"/>
  <path class="st2" d="M107.76,119.7c-.05.66.05,1.34,0,2-.03.33.03.67,0,1-2.78.63-3.59-2.94,0-3Z"/>
  <path class="st1" d="M464.52,98.71c.9.1,5.45.84,6,1,.32.09.72-.11,1,0,1.6.62,10.97,8.23,12.5,9.98,1.99,2.28,6.89,10.36,7.49,13,.19.86-.16,2.07,0,3,1.24,7.32.85,14.59,1,21.99.04,2-.03,4,0,6,.29,18.63-.07,37.33,0,55.96,0,1.67,0,3.33,0,5,0,2.66,0,5.33,0,7.99,0,1.67,0,3.33,0,5,.03,10.65-.02,21.33,0,31.98,0,2,0,4,0,6,0,1,0,2,0,3,0,.67,0,1.33,0,2,.01,48.74.97,97.71.03,146.44-.04,1.9.48,3.91-1.03,5.46-.01-.13-.84-.35-1.04-2.43-.38-3.99.37-8.5.03-12.56-2.08.91-.72,5.54-.94,7.54-.12,1.11-.32,3.18-1.56,3.44-1.05.23-7.03-8.42-9.51-9.53-2.04-.91-3.96.57-5.96.54,2.71-4.03,1.68-4.37-2-7.99,1.18,2.11,6.37,3.45,7,4,.15.13.53,2.26,1.94,3.53,2.82,2.54,5.75,5.66,9.04,7.46.68-3.14-.87-18.66,0-19.99.06-.1,1.35.25,1.75-.19,1.17-1.34-.35-21.13.24-24.78l-1.99,15.98c.45-3.25-.64-18.02,0-18.99.06-.1,1.35.25,1.75-.19,1.07-1.22-.26-13.02.24-15.79-1.94.84-.92,5.62-.99,7.51-.12,3.18-.86.5-1,.48v-19.99s-10.99,8.99-10.99,8.99c.02-.86,3.8-5.53,4.45-6.04,1.12-.87,3.13-.77,3.41-1.09,1.23-1.42-2.2-6.03,3.98-2.71l1.14,9.83v-20.98c-1.38-.14-1.18,1.73-1.99,2.99v-18.99c.98.05.84.24,1,1,.36,1.67-.64,13,.5,13,.87-4.19.56-8.73.5-13-.05-2.99.04-6,0-8.99-6.1,2.7-4.96-1.09-7.92-3.57-8.01-6.71-9.81-1.97-16.06,2.57,2.8-2.2,6.11-7.61,8.99-8.99.4-.19,1.4.13,2,0,.51,1.96,10.54,10.6,10.98,9.99-.29-5.91.44-12.11.01-17.99,2.26,4.16.42,10.24,1.01,14.98h.99s0-36.97,0-36.97h-.99c-1,2.13,1.49,8.92-1.01,10.99-.59-5.73,1.28-12.63-1-17.99l1.99-2,1,4.99v-11.98s-4.99-1-4.99-1c.85.69,1.84,1.19,2.99.99-.87-4.62,1.2-14.11,0-17.98,1.91,2.77.91,7.22,1,10.51.02.86-.41,3.6,1.01,1.98l-.02-25.47c-1.3-.28-1.17,1.29-1.99,1.99v-17.99l1.99,1.99c-.42-2.24.76-9.65-.24-10.79-.39-.45-1.68-.1-1.75-.19-.81-1.22.6-15.06,0-17.99.76.77.73,2.25,1.99,1.99v-14.98s-.99,5-.99,5c-4.37.67-2.42-1.02-2.99-2,3.02.56,1.93-1.53,2-3.45.17-5.17-.12-10.38,0-15.53.39-.03,1.72,1.43,1.99,1v-12.49c-1.14-1.53-1,1.27-1.99,2.5.03-4.49.14-12.02-2-15.99,2.96.22,2-.93,1.32-2.8-2.48-6.89-5.51-8.02-10.74-11.3-1.73-1.08-1.65-5.25-5.57-1.89-1.1.95-.91,1.94-1,2-1.39.93-4.39,1.75-6,3,2.07-2.38,5.34-3.46,3-7,.22.22,1.02-.15,1-.5-.07-1.09-1.47.03-1,.5-4.78.61-10.11.17-14.99,0l10.99-1.01-1.99-2.99c.99.06,2.02-.11,3,0ZM489.5,180.66v10.98s1,0,1,0v-10.98s-1,0-1,0ZM490.5,404.51v-5.99h-.98v5.99h.98Z"/>
  <path class="st3" d="M309.63,98.71c2.66,0,5.33,0,7.99,0s5.33,0,7.99,0,5.33,0,7.99,0c2.34,0,5.42,0,7.99,0s5.33,0,7.99,0,5.33,0,7.99,0,5.33,0,7.99,0c2.34,0,5.42,0,7.99,0s5.33,0,7.99,0,5.33,0,7.99,0,5.33,0,7.99,0,5.33,0,7.99,0,5.33,0,7.99,0,5.33,0,7.99,0,5.33-.02,7.99,0,5.33-.03,7.99,0,5.34-.04,7.99,0,5.34-.07,7.99,0c1,.03,2-.03,3,0,1.66.06,3.34-.1,5,0l1.99,2.99-10.99,1.01c-.33-.01-.67,0-1,0-3.23-.07-5.88-.03-8.99,0-.33,0-.67,0-1,0-6.65.1-13.34-.08-19.99,0,.82,1.44,2.01,2.63,3,3.99-1.25-.79-4.61-2.08-4.78-2.28-1.41-1.64,2.04-3.45-5.63-2.64-.81.09-1.42.91-1.58.92-.33.02-.67-.01-1,0-6.61.3-13.36-.05-19.99,0-2.99.02-6.91-.04-9.99,0-2.58.03-17.25.51-17.99,0-.09-.06.37-1.9-.62-2.07-.42-.07-8.05.8-8.37,1.08-.72.63,1.84,3.52,0,4.5-.82.44-2.95-1.35-3-1.51-.13-.41,1.4-1.71,1-1.99h-19.99c-.31-.55.63-1.98-.55-2.04-2.44-.13-7.28,1.87-9.45,2.03-6.17.47-12.77-.34-18.99,0,.19-.84,1.11-1.88,1-3,.82,0,2.87-1,5-1Z"/>
  <path class="st3" d="M103.76,424.5c2.01.69,1.83-1.77,2.69-1.97,5.81-1.4,3.5,1.22,4.86,3.93.63,1.26,2.95,1.85,4.43,5.04l-8.99-7v19.99c2.13-2.37,5.87-3.9,7.99-6v3.49c-6.87-2.31-2.48,2.47-3.41,3.56-.86,1-3.15.7-3.46,1.05-.37.41.1,4.07-.12,5.89-.72,5.85-1.48,11.76-1,17.99-2.3-9.55-.36-20.16-1.01-29.97-.8-.4-1.96,1.85-1.99,1.99h-1c1.53-5.3,1.34-12.42,1-17.99Z"/>
  <path class="st3" d="M149.73,98.71c2.66-.05,5.34.03,7.99,0s5.33.03,7.99,0c1.67-.02,3.33.01,5,0-.58,2.24,2.9,2.92,3,4-6.46-.45-13.64.62-19.99,0-1.43-.14-4.44-2-7-1v-3c1.01-.02,2.01.02,3,0Z"/>
  <path class="st3" d="M181.71,98.71c2.66-.02,5.33.01,7.99,0s5.33.01,7.99,0c1.67,0,3.33,0,5,0-.08,1.32.11,2.68,0,4-6.02-.54-13.14.74-18.99,0-2.85-.36-6.17-.97-5-4,1,0,2,0,3,0Z"/>
  <path class="st3" d="M245.67,98.71c2.66,0,5.33,0,7.99,0s5.33,0,7.99,0c1.33,0,2.66,0,4,0,1.06,3.82-1.9,2.9-3,4h-19.99c-.28-1.04.19-2.79,0-4,1,0,2,0,3,0Z"/>
  <path class="st3" d="M106.76,695.32c.02,1.77.92,5.12,1,7.99.12,4.5-1.26,7.94,0,13.99l-1.01-1.99h-.98c.07.96-.16,2.07-.01,2.99h-1c-.7-2.43-1.58-5.57-2-7.99-.4-2.29-.48-4.71-1-7,.13.12.64-.07,1,0,.57.12,2.9.11,3,0,.91-.94-.91-20.62.99-25.99.05,5.98-.07,12,0,17.99Z"/>
  <path class="st3" d="M277.65,98.71c2.66,0,5.33,0,7.99,0s5.33,0,7.99,0c1.33,0,2.66,0,4,0,1.17,3.03-2.15,3.64-5,4-5.84.74-12.97-.54-18.99,0,.24-1.34.77-2.65,1-4,1,0,2,0,3,0Z"/>
  <path class="st1" d="M103.76,312.57v-9.99c0-23.93-.98-48.3-1-71.95,0-6.07.93-13.35,1-19.99.03-2.99.01-6,0-8.99v110.93Z"/>
  <path class="st3" d="M213.69,98.71c2.66,0,5.33,0,7.99,0s5.33,0,7.99,0c1,0,2,0,3,0-.11,1.31.16,2.7,0,4h-18.99c-1.41-1.42-3.96-.32-3-4,1,0,2,0,3,0Z"/>
  <path class="st1" d="M133.74,114.7c-3.96,5.07-10.97,7.48-12.99,13.99-.66-.09-2.55-.15-3,0-.61-4.32-2.62-4.32-5.27-5.99-1.26-.8-.59-3.72-4.73-1,.05-.66-.05-1.34,0-2,7.34-.11,6.91,6.57,12.99,5.99l-1-2.98c5.68,2.02,10.49-8.42,13.99-8Z"/>
  <path class="st1" d="M131.75,98.71c-.5,3.75-4.32,2.07-7.92,3.57-6.02,2.52-9.53,5.78-13.22,10.81-2.6,3.54-2.39-.03-2.84,6.6-3.59.06-2.78,3.63,0,3-.36,4.29-1.18,8.69-1,12.99-2.29-2.6-.75-6.84-.22-9.73.35-1.93-.08-1.21-1.77-1.26l-1,39.97c0-.67,0-1.33,0-2,0-1,0-2,0-3s-.01-2,0-3c0-.87-1-1.83-1-2,.01-1.66-.02-3.33,0-5,.04-3.86.75-10.42,1-14.99.07-1.33-.06-2.67,0-4s-.12-2.69,0-4c.3-3.11.88-6.1,2-8.99,1.74-4.53,6.16-10.1,9.99-12.99.18-.14,2.8-1.88,3-2,.47-.27,1.49-.78,2-1,2.48-1.07,8.32-2.68,10.99-3Z"/>
  <path class="st3" d="M103.76,620.37c2.25,4.23,1.68.67,3,0v18.99c-.99.34-2.11.35-3,1-.41-5.72-.8-11.23-1-16.99-.02-.66.02-1.33,0-2-.01-.33,0-.67,0-1h1Z"/>
  <path class="st3" d="M103.76,648.35c0,.09.82-.13.97,1.48.26,2.82-.11,5.69.04,8.51l1.99-8.99c.08,5.98-.06,12.01,0,17.99-1.06.14-2.06.49-3,1h-1c.13-.92-.04-2.02,0-3,.07-1.69-.03-2.91,0-4,.12-4.36-.54-8.76,1-12.99Z"/>
  <path class="st3" d="M103.76,676.33c.27,3.03,2.32,18.01.75,19.79-.39.45-1.68.1-1.75.19h-1c.17-2.28-.24-4.75,0-7,.02-.22.86-.81.92-1.59.31-3.86-.7-7.93,1.08-11.4Z"/>
  <path class="st3" d="M103.76,563.4l1.01,11.99,1.99-10.99v17.99c-.91-2.28-1.18-3.68-4-3,0-3.01.96-5.43,1-7.99s-.05-5.34,0-7.99Z"/>
  <path class="st1" d="M485.51,729.29c-2.69,5.23-15.24,12.07-20.99,12.99-1.21.19-2.71-.11-4,0l5.99-2.99c-4.78-.09-8.48.59-12.99-1.01l14.99-1c-.19.64-1.31,1.76-1,1.99,7.61.23,11.59-7.05,17.99-9.98Z"/>
  <path class="st1" d="M184.71,742.29c-.67,0-1.33,0-2,0-2,0-4,.01-6,0h-3c-1,0-2,0-3,0-5.32-.04-10.67.08-15.99,0-2-.03-4,.04-6,0,4.02-3.09,8.49-1,12.45-.95,7.63.09,16.24-1,23.52.95Z"/>
  <path class="st1" d="M103.76,613.37h-1c-.02-1,0-2,0-3-.02-2,0-4,0-6,0-3.32.03-6.67,0-9.99h1c1.64,7.76.82,11.48,0,18.99Z"/>
  <path class="st1" d="M105.76,718.3c.99,6.01,7.54,14.66,12.66,17.82,5.83,3.6,11.97,4.82,18.81,4.16l7.51,2c-4.54-.1-10.85.65-14.99,0-12.12-1.9-21.73-12.67-24.98-23.98h1Z"/>
  <path class="st1" d="M267.65,742.29c-.46-3.67,1.4-1.14,2.82-1.24,3.98-.28,7.67-.91,11.72-.76,1.92.07,4-1.04,3.45,1.99-2.66,0-5.33,0-7.99,0-3.32,0-6.67,0-9.99,0Z"/>
  <path class="st1" d="M320.62,742.29c-2,0-4,0-6,0-2.66,0-5.33,0-7.99,0-.67,0-1.33,0-2,0-2,0-4,0-6,0-.33,0-.67,0-1,0l20.51-2.02c1.92.14,2.3,1.95,2.48,2.02Z"/>
  <path class="st3" d="M103.76,469.47c-1.95-4.43-.35-9.6-1-13.99l1-1c.18,5.58.1,9.72,0,14.99Z"/>
  <path class="st1" d="M363.59,742.29l10.49-2.04,3.5,2.04c-2.33,0-4.67,0-7,0-.67,0-1.33,0-2,0h-1c-1,0-2,0-3,0h-1Z"/>
  <path class="st1" d="M346.6,742.29c-.33,0-.67,0-1,0-2,0-4,0-6,0-2.66,0-5.33,0-7.99,0,4.18-2.99,10.45-1.62,14.99,0Z"/>
  <path class="st1" d="M103.76,593.38c-.24-.74.02-1.67-1-2,0-.66-.02-1.34,0-2,.04-1.26.13-2.78,0-4h1c.34,1.99,2.7,5.68,0,7.99Z"/>
  <path class="st1" d="M225.68,742.29c-4.65-.01-9.34.01-13.99,0,3.56-1.69,10.64-1.66,13.99,0Z"/>
  <path class="st1" d="M425.55,742.29c-3.32.03-6.67-.02-9.99,0,2.21-1.71,7.97-1.66,9.99,0Z"/>
  <path class="st1" d="M407.56,742.29l4.48-2.01.51,2.01c-1.67.01-3.33,0-5,0Z"/>
  <path class="st1" d="M293.64,742.29c-.67,0-1.33,0-2,0-1,0-2,0-3,0,.79-2.77,3.29-1.57,5,0Z"/>
  <path class="st1" d="M441.54,742.29c-2,.03-4-.02-6,0,.95-1.61,4.99-1.64,6,0Z"/>
  <path class="st1" d="M234.68,742.29c-1.67,0-3.33,0-5,0,.66-1.58,4.34-1.58,5,0Z"/>
  <path class="st1" d="M348.6,742.29c-.55-3.13,2.61-2.97,2,0-.67,0-1.33,0-2,0Z"/>
  <path class="st2" d="M103.76,172.67h-1v-2h1c0,.67.02,1.33,0,2Z"/>
  <path class="st1" d="M324.62,742.29c-.33,0-.67,0-1,0,.1-.01.23-.6.55-.74l.45.74Z"/>
  <path class="st1" d="M385.58,742.29c-.33,0-.67,0-1,0l.5-.98.5.98Z"/>
  <path class="st1" d="M485.51,728.29c1.49-4.5-.17-5.71,0-7,.1-.74,2.77-5.65,3-7l2,2.5-.02-25.47c-1.53-.13-.86,1.6-1.99,2.99-.78-5.15,1.08-13.32,0-17.99,2.36,1.63.17,7.21,1.01,8.99h.99s0-30.97,0-30.97c-1.76-.22-.95,2.26-1,3.49-.14,3.49.11,7.02,0,10.5-1.46.49-1.88-.97-1.99-.99,2.28-5.71.41-12.92,1-18.99,1.52,1.97.17,3.94,1.99,3.99l.45-15.48-1.43-11.49-1.01,12.99c1.2-3.77-.88-13.41,0-17.99,1.08.24.5,2.41,1.99,1.99.09-7.84-.07-15.7-.03-23.55.01-2.19,1.04-2.29,1.04-2.43,1.5,1.57.98,3.56,1.03,5.46.76,32.79,2.11,72.7.01,105.01-.46,7.09-1.75,16.36-7.04,21.44Z"/>
  <path class="st1" d="M488.51,424.5c.06-.04-.14-1.16.99-1l.51,3.01,1.5-2.01c2.11,26.99,1.55,56.12,1.03,83.48-.04,1.9.48,3.91-1.03,5.46,0-.13-1-.24-1.04-2.43-.07-4.18.14-8.39.03-12.56-.21-.31-1.36.8-1.99,1,.89-5.08-1.23-14.6,0-18.99.13-.47,1.8-.28,2.08-3.4.35-3.98-.4-8.53-.09-12.59l-1.99,6.99v-18.99c-1.87,2.13-5.17,3.48-7,5,.63-.9,4.92-5.56,5.27-5.72,1.28-.58,3.72-.09,3.72-.27v-21.99h-.99c-.58,4.42,1.24,10.17-1.01,13.99,1.06-5.16-.77-13.41,0-18.99ZM490.5,460.47v-6.99h-.98v6.99h.98ZM490.51,481.46h-1v14.99h1v-14.99Z"/>
  <path class="st1" d="M491.51,592.39c0-.13-1.02-.24-1.04-2.43-.05-6.52.13-13.05.03-19.55l-1.99,11.99c-.24-5.97.17-12.02,0-17.99.54.01,1.43.17,1.75-.19,1.14-1.3-.32-18.42.24-21.79-1.74-.23-.94,2.27-.99,3.48-.16,3.82.12,7.69-.01,11.5-1.2.1-1.45-1.56-1.99-2,2.28-5.71.41-12.92.99-18.99-.61-.82-10.44,8.3-10.96,9.53-.09.2,1.83,3.33,1.98,3.47,1.29,1.12,3.16,2.37,5,4-1.04-.33-3.96-1.81-4.65-2.32-.59-.44-.26-1.62-.35-1.68-3.59-2.32-4.83-1.53-7.99,1,.69-.65,3.11-3.59,2.94-4.37s-5.74-6.53-6.93-7.63c4.21.79,4.32,5.84,8.48,5.85,5.39.02,2.87-4.06,3.56-4.79.25-.26,2.7.07,3.93-.55,1.59-.8,3.33-6.74,5.92-3.39.74.95-.99,4.1,1.08,3.88.33-7.13,0-14.37-.03-21.55,0-2.19,1.04-2.29,1.04-2.43v76.95Z"/>
  <path class="st3" d="M103.76,473.46c.81,6.75,2.15,3.98,5.4,6.12,1.25.82,4.02,4.25,4.59,5.87-.63-.62-6.73-5.34-6.99-5,.58,6.4-1.29,13.93.99,19.99-.19.36.13,1.39,0,2-2.55-.75-1.99-3.83-2-5.99h-.98s-1.01,1.99-1.01,1.99c-.48-8.5-1-16.37-1-24.98h1Z"/>
  <path class="st1" d="M102.76,366.54c3.03-.56,1.92,1.53,2,3.45.32,8.09.6,17.73-1,25.53-.59-9.3-1-19.11-1-28.98Z"/>
  <path class="st1" d="M103.76,332.56c.96,3.62,1,5.66,1,9.49v15.99c0,1.26-.68,2.88,0,4.5l-1.99-1c0-.67,0-1.33,0-2,0-1-.01-2,0-3,.03-2.34,1.05-5.32,1.06-8.53.02-5.1-2.53-10.16-.06-15.45Z"/>
  <path class="st1" d="M108.76,592.39c-3.02-.56-1.94,1.53-2,3.45-.17,5.17.12,10.37,0,15.53,1.17,1.32,9.04-8.02,10.99-8.52.22-.89-5.87-7.31-7-8.46,5.43,1.79,6.09,7.57,11.99,3.47,1.96-1.36,2.13-4.8,5.99-4.47-1.04.87-8.1,7.49-8.39,7.99-.46.8.46,1.92.4,2-.07.1-1.06-.85-2.48-.05-3.16,1.79-8.93,7.22-6.52,11.04-1.1-.47-5.72-.84-5.93-1.05-.81-.81.47-19.81-.06-22.92,2.16-.58,2.12,1.18,2.99,1.99Z"/>
  <path class="st1" d="M462.52,167.67c5,7.12,4.49,5.5,11.38,11.15,1.05.86,1.68,2.91,2.15,2.89,3.58-.11,6.89-7.46,10.46-8.05-.81,2.96-8.27,6.86-8.58,8.92-.18,1.16,3.49,4.8,4.59,6.07-4.19-.22-6.19-5.37-8.99-3,.55-.62,1.94-2.16,1.57-3-.86-1.95-11.31-9.25-13.2-11.92l-8.36,5.93c5.69-6.01,8.1-5.52,2-12.99,1.03.87,6.76,3.67,7,4Z"/>
  <path class="st1" d="M103.76,200.65c-.02-3.14.83-7.69-1-9.99.56-6.34.79-11.6,1-17.99.02-.66,0-1.33,0-2,0-.33,0-.67,0-1s0-.67,0-1c0-.67,0-1.33,0-2,1.66,1.04,1,3.79,1.02,5.48.09,7.66.08,15.36,0,23.01-.02,1.69.64,4.44-1.02,5.48Z"/>
  <path class="st1" d="M424.55,134.69c3.06-.74,1.66,1.7,2,2,.23.2,5.06,2.99,5.36,2.94,1.56-.26,3.79-5.19,6.63-4.93-.13.16-.23,1.54-.94,2.51-2.75,3.73-7.15,4.15-1,8.95,1.09.85,3.24,1.12,3.73,1.82.46.66-.02,2.26.3,2.59,1.03,1.05,5.04-1.87,3.92,3.12-4.78-3.47-8.8-7.55-13.32-10.86-.96.52-1.78,1.24-2.67,1.86,2.55-4.06-.35-4.68-1.98-6.66-.26-.32.16-1.11-.02-1.34-.12-.15-.73-.44-2-2Z"/>
  <path class="st1" d="M463.52,306.58c.26.24,1.09,5.06,2.34,6.65.36.46,6.91,6,7.36,6.14,2.17.66,7.53-.69,9.01-2.07,1-.93.75-3.03,1.47-3.58s2.11.03,2.81-.15c-1.44,4.34-10.67,6.81-7.99,10.99l-7.99,3c1.05-1.23,4.19-3.48,3.88-5.36-.37-2.23-10.48-9.34-12.52-11.53-3.33-.59-11.31,11.04-14.35,11.89-.35.1-1.65.1-2,0-2.41-.67-5.19-5.44-7-7,8.48,3.6,5.16,9.23,13.61,1.56.42-.38.2-1.82.65-2.24,1.13-1.06,4.2-1.05,5.77-3.77,3.24-5.62-1.05-4.38-2.78-5.8-.23-.19-2.18-3.42-3.26-4.74,3.51.03,5.76,5.56,7.98,6.49,1.07.45,2.73-.76,3.02-.5Z"/>
  <path class="st1" d="M107.76,313.57c-2.28,5.36-.41,12.26-.99,17.98,1.05,1.15,8.03-4.86,8.99-5.99-.7,1.14-8.42,10.75-9.99,8.99v-21.98c1.85-.56,1.74.88,1.99.99Z"/>
  <path class="st3" d="M106.76,536.42c-.35,6.61.25,13.36,0,19.99-1.45,1.09-.9,2.05-1-.48-.26-6.27-.37-13.82-.04-20.05.09-1.73-.17-5.95,2.03-6.45.93,2.4-.9,5.37-.99,6.99Z"/>
  <path class="st3" d="M102.76,510.44c3.03-.56,1.92,1.53,2,3.45.12,2.99.1,6.09,0,9.08-.06,1.92,1.02,4.01-2,3.45-.26-5.23-.05-10.73,0-15.99Z"/>
  <path class="st1" d="M467.52,482.46c2.62,1.93,7.17,6.8,10.38,5.91,1.39-.39,1.18-3.54,3.61-2.91-2.94,3.06-5.25,4.38-2,7.99l-7.99,1c6.19-6.4-.72-6.23-4-11.99Z"/>
  <path class="st3" d="M103.76,556.41c0-.67,0-1.33,0-2-.02-3.46.84-8.35-1-10.99.65-3.06,1.01-6.83,1-9.99.02.21.9,1.52,1.07,3.39.51,5.67.32,14.13-1.07,19.59Z"/>
  <path class="st1" d="M130.75,144.68c-2.71,4.64-8.7,6.39-9.99,11.99-.45-.13-2.52-.12-3,0-.36-2.34-2.49-4.23-4-6,7.43,5.22,11.39-2.58,16.99-6Z"/>
  <path class="st1" d="M106.76,257.61v17.98s5-1.99,5-1.99c-.76.8-4.67,6.48-5.99,4.99.81-4.76-1.55-17.76.99-20.98Z"/>
  <path class="st1" d="M442.54,102.71c-1.1,6.34-9.8,6.79-8.99,12.99-5.51-1.7-11.17,9.63-15.98,11.01-.14.25,2.38,3.22,2.99,3.98-5.52-2.98-7.57,2.15-11.99,4,1.48-1.23,6.86-6.08,6.74-7.51l-13.22-12.23c-1.68-.13-13.02,10.78-13.51,13.75-.41-.1-2.88-.09-3,0-.11.08.05,1.6-1.1,2.4-2.2,1.55-4.56,3.33-6.9,4.59,1.44-1.26,3.31-3.93,4.98-5.56,1.12-1.09,2.91-1.3,3.02-1.44.06-.08.11-1.78,0-2,3.05.69,2.04-2.67,3.21-3.77,1.74-1.65,5.8-1.97,9.32-6.17,1.36-1.63,1.76-4.33,2.46-5.04.38-.39,4.05-1.51,5-2-6.06,8.93,4.58,7.86,6.01,9,.36.29-2.77,5.7,4.94,5.06l-.48,1.92c4.55-3.02,14.21-8,13.52-13.97-2.44-.03-3.55-3-5-5,2.38,1.5,4.59,1.45,5,5,3.65.05,9.45-6.13,11.99-8.99.33,0,.67,0,1,0Z"/>
  <path class="st1" d="M488.51,593.38c1.24,1.34,1.69,18.33.99,18.99-1.64,1.57-7-2.51-6.99-5,.87.77,5.26,4.85,5.99,3.99v-17.98Z"/>
  <path class="st1" d="M106.76,286.59v16.98c1.24,1.36,9.3-6.15,10.11-7.48,1.24-2.05-.24-3.38-.11-3.51.77-.77,8.99-1.8,9.66-4.98l1.33-.02c-2.39,2.38-5.29,4.6-7.05,7.53-.11.74,6.07,6.63,7.05,7.46-4.89.68-4.73-6.56-9.49-6.08-1.78.18-5.43,5.5-6.86,6.79-.85.77-3.56-.69-2.65,3.29-.65-.43-2.73-1.04-2.82-1.18-.72-1.06-.48-17.39.83-18.81Z"/>
  <path class="st1" d="M107.76,220.63c-.34.33.96,2.86-1.99,1.99.76-4.11-1.26-18.47.47-21,2.69-3.93,3.82,1.14,4.52,2.02l-3.99-2c.58,6.06-1.29,13.28.99,18.99Z"/>
  <path class="st1" d="M103.76,416.5c-.52-4.11,1.22-9.61-1-12.99.23-1.52-.74-4.14,1-5,.02.22.93,1.68,1.07,3.38.34,4.13.44,10.72-1.07,14.61Z"/>
  <path class="st1" d="M488.51,527.43v-18.99c1.58,0,.94,2.29,1.01,3.49.19,3.22.66,13.54-1.01,15.5Z"/>
  <path class="st1" d="M106.76,165.67c-1.64-.18-.94-2.27-1.01-3.49-.26-4.63-.63-11.24,1.01-15.5-.26,6.3.19,12.68,0,18.99Z"/>
  <path class="st1" d="M106.76,247.62c-2.13-2.3-1.12-13.85,0-16.99v16.99Z"/>
  <path class="st1" d="M106.76,359.54c-2.13-2.36-1.13-13.82,0-16.99v16.99Z"/>
  <path class="st1" d="M103.76,330.56v-15.99c2.04,4.66,1.21,11.07,0,15.99Z"/>
  <path class="st1" d="M435.54,117.7c5.43,2.5,8.3,9.96,14.99,6-.89.82-1.7,2.69-2.97,3.5,2.58,2.38,4.84,5.2,7.45,7.54,3.21,2.88,5.78,7.07,9.51,2.95-1.19,1.26-2.21,4.24-3,5-4.35,4.14-9.51,9.15-13.99,12.99-.74.63-2.04.81-3,1,.42-.49.58-1.59,1-2,3.35-3.33,7.21-7.79,10.28-10.7,1.02-.97,2.53-.81,3.08-1.21,3.56-2.55-5.99-7.15-6.83-8.13-.91-1.07-.28-2.99-2.22-3.77-1.49-.6-4.05-.28-5.74-1.18-.84,2.38-3.4,2.72-4.58,4l5.98-6.5c-4.08-2.32-6.59-6.95-9.98-9.49Z"/>
  <path class="st1" d="M459.53,223.63c.4.22,1.57-.22,2,0,.2.1,1.85,3.83,2,4-3.97-2.52-5.95,2.69-8.03,4.48-.86.74-2.48,1.05-2.96,1.52,2.18-4.71,7.92-4.5,7-9.99-2.77-1.56-4.63-1.68-5-6,2.08,2.02,4.41,2.48,5,6Z"/>
  <path class="st1" d="M486.51,425.5l-7.99,7c1.53-5.31,3.82-5.18,7.99-7Z"/>
  <path class="st1" d="M486.51,229.63c-2.43,1-5.59,8.06-8.99,7.99.82-3.86,5.85-5.77,8.99-7.99Z"/>
  <path class="st3" d="M107.76,647.35h-1c-.04-1.2-2.42-4.62.5-7.01l.5,7.01Z"/>
  <path class="st1" d="M396.57,742.29c-1.42-2.96,7.08-3.29,6,0-2,0-4,0-6,0Z"/>
  <path class="st1" d="M466.52,230.63c3.96.31,4.53,3.15,6.35,4.7.72.62,3.8,2.5,4.64,3.29.44.42,2.64,3.77,4,5-2.05.44-1.83-1.52-3.24-2.31-1.11-.62-3.5-.5-3.75-.69-.1-.07,1-1.21.09-2.51-1.07-1.53-5.85-5.06-8.09-7.48Z"/>
  <path class="st1" d="M407.56,163.67c-1.87,2.18-1.88,5.29-5.99,5.49l6.99,6.5c-1.65-1.43-4.96-2.46-6.49-4.85-.84.61-1.63,1.27-2.5,1.85.32-1.57,1.01-3.78,2-5,1.13-1.38,4.27-3.16,6-4Z"/>
  <path class="st1" d="M425.55,147.68c-.66.57-1.37,1.98-2.49,2.97-2.66,2.35-7.34,2.54-4.5,6.02l-6,2c1.96-2.14,2.78-4.78,3-5-1.1,1.06-4.46-2.71-5-4,.75.46,6.95,2.11,5,4,.26-.26,2.03-.13,2.74-.67l7.26-5.32Z"/>
  <path class="st1" d="M471.52,430.49c4.9-1.06,3.9,5.04,3.99,8h-3.99c1.21-1.38,3.35-3.63,3.07-5.42-.03-.2-2.23-1.74-3.07-2.58Z"/>
  <path class="st1" d="M121.75,128.69c4.08,1.39,7.02,9.45,12.66,10.89,1.98.5,2.65-5.23,6.33-4.89-8.32,10.74-9.03,4.28-16.5-2.1-1.21-1.03-3.22-.49-2.48-3.9Z"/>
  <path class="st3" d="M107.76,620.37c4.99-2.05,2.89.89,4.93,3.37,1.08,1.31,1.74-.53,4.07,3.63l-8.99-7Z"/>
  <path class="st3" d="M120.75,656.34v3c-.41-.12-2.59-.12-3,0v-3c.48.12,2.54.13,3,0Z"/>
  <path class="st3" d="M116.76,660.34c-.48.55-.41,1.87-1.33,2.7-.19.17-3.92,2.09-4.66,2.29,1.69-1.96,3.01-4.81,6-5Z"/>
  <path class="st1" d="M486.51,499.45c-1.8-.35-4.66-.64-3.99-2.49l.99-.51c1.1.9,2.48,1.36,3,3Z"/>
  <path class="st1" d="M108.76,257.61c.22-.03,1-1.42,1.97-1.01-.78,4.79,6.97,5.61,7.03,9-3.7-.92-6.58-5.1-8.99-7.99Z"/>
  <path class="st1" d="M486.51,285.59l-8.99,7.99c.29-3.55,3.13-2.94,4.26-3.93,2.2-1.94.85-2.48,4.73-4.06Z"/>
  <path class="st1" d="M203.7,742.29c-1.67,0-3.33,0-5,0,0-.47-.03-.79.51-.98l4.48-1.02c-.07.62.18,1.62,0,2Z"/>
  <path class="st1" d="M479.51,710.31c1.58-2.2,4.59-4.93,7-6-1.76,2.38-3.94,5.55-7,6Z"/>
  <path class="st1" d="M458.53,742.29c-1.99.1-4-.05-6,0,0-1.56,5.01-1.63,6,0Z"/>
  <path class="st1" d="M486.51,369.53l-7,6c1.73-3.67,2.97-4.4,7-6Z"/>
  <path class="st1" d="M486.51,397.52c-.92,2.1-2.97,3.18-5,4,2.28-2.26,1.37-2.44,5-4Z"/>
  <path class="st1" d="M470.52,289.59c2.58,1.26,4.85.13,4,4-1.5-1.22-3.21-2.03-4-4Z"/>
  <path class="st1" d="M106.76,145.68c.07-.68-.42-2.03.49-1.99,2.62.46,2.35,2.83,2.5,2.99l-3-1Z"/>
  <path class="st1" d="M488.51,710.31c.02-1.67-.01-3.33,0-5,.49,1.4,2.43,3.52,0,5Z"/>
  <path class="st1" d="M472.52,682.33c1.56.98,3.39,2.33,5,2-.17.49.11,1.38,0,2-.4-.11-1.5-.07-2,0l-3-4Z"/>
  <path class="st1" d="M487.51,360.54c-.48-.23-1.4-.04-1.99-.52-.63-.51-.74-1.23-1.01-1.48,1.46.01,2.56.57,3,2Z"/>
  <path class="st1" d="M112.76,132.69c1.18-1.02,1.89-2.68,4-3-.97.76-1.49,3.32-4,3Z"/>
  <path class="st1" d="M479.51,437.49l7,6c-3.67-.47-5.36-2.88-7-6Z"/>
  <path class="st1" d="M411.56,159.67c.32,1.8-.19,2.33-2,2,.71-.78,1.51-1.45,2-2Z"/>
  <path class="st1" d="M467.52,426.5c.72.37,2.56-.89,2,2-.57-.56-1.77-.8-2-2Z"/>
  <path class="st1" d="M111.76,133.69c.44,1.99-1.33,2.53-3,3,.44-1.68,2.08-2.12,3-3Z"/>
  <path class="st1" d="M488.51,583.39c.1.64,2.32,3.01-.49,2.01-1.1-.39-.22-1.71-.51-2.01h1Z"/>
  <path class="st1" d="M486.51,667.34c-1.73-.65-3.88-1.46-4-4,1.17,1.19,3.33,1.94,4,4Z"/>
  <path class="st1" d="M258.66,742.29c-1,0-2,0-3,0,.34-1.57,2.24-1.07,3,0Z"/>
  <path class="st1" d="M485.51,191.65c-3.49-1.29-1.19-.96-2-2l2,2Z"/>
  <path class="st1" d="M443.54,157.68c.61,2.85-1.47,1.66-2,2,.21-1.2,1.49-1.47,2-2Z"/>
  <path class="st1" d="M468.52,245.62c1.67-1.53,2.62-3.44,5-4-1.38,1.85-2.34,3.83-5,4Z"/>
  <path class="st1" d="M109.76,314.57c2.24,1.27,5.64,3.28,7,6-2.75-1.17-5.05-3.68-7-6Z"/>
  <path class="st1" d="M469.52,328.56c-.15.16.32,1.37-.16,1.84s-1.68.01-1.84.16l2-2Z"/>
  <path class="st3" d="M109.76,666.34c-.47.64-.54,4.17-2.99,2.99-.86-.42,1.37-1.55,1.99-1.99.36-.25.63-.73,1-1Z"/>
  <path class="st1" d="M127.75,286.59c1.24-1.21,2.03-1.28,3-2-.5,1.39-1.53,1.99-3,2Z"/>
  <path class="st1" d="M482.51,680.33c-1.28,1.1-2.46,2.25-4,3,1.09-1.59,1.69-2.98,4-3Z"/>
  <path class="st1" d="M188.71,742.29c-.67,0-1.33,0-2,0l1.49-.99.51.99Z"/>
  <path class="st1" d="M250.67,742.29c-.67,0-1.33,0-2,0l1.49-.99.51.99Z"/>
  <path class="st1" d="M486.51,331.56c-2.93-.23-4.37-2.97-6-5,1.7,1.51,4.73,3.3,6,5Z"/>
  <path class="st3" d="M109.76,705.31c1.79.11,3.83,2.53,5,4-2.32-.08-3.15-2.43-5-4Z"/>
  <path class="st1" d="M484.51,482.46l3-2c-.35,1.75-2.49,1.58-3,2Z"/>
  <path class="st3" d="M108.76,720.3c-.91-.93-.71-.8-1-2l1,2Z"/>
  <path class="st1" d="M469.52,412.51l2-2c-.78.88-1.15,1.23-2,2Z"/>
  <path class="st1" d="M423.55,133.69c-.46-.56-1.24-1.02-2-2l2,2Z"/>
  <path class="st1" d="M390.57,130.69c-.38-.24-.67-.82-1-1l1,1Z"/>
  <path class="st1" d="M477.51,461.47c.17-1.48,2.07-2.2,3-3l-3,3Z"/>
  <path class="st1" d="M483.51,679.33c.35-.3.64-.7,1-1l-1,1Z"/>
  <path class="st1" d="M463.52,334.56l2-2c-.44.31-.59,1.33-2,2Z"/>
  <path class="st1" d="M486.51,332.56h1s.12.99-.5.98c-.67-.17-.38-.73-.5-.98Z"/>
  <path class="st1" d="M131.75,283.59l1-1c-.2.01-.61.8-1,1Z"/>
  <path class="st1" d="M465.52,229.63l-1-1c.31.35.68.65,1,1Z"/>
  <path class="st1" d="M454.53,162.67c-1.25-1.48-3.3-2.99-5-5l5,5Z"/>
  <path class="st1" d="M488.51,388.52c.47-.47,1.59.93.5,1-.35.02-.72-.78-.5-1Z"/>
  <path class="st1" d="M112.76,149.68l-2-2c.54.61,1.24,1.09,2,2Z"/>
  <path class="st1" d="M426.55,146.68c.35-.32.64-.69,1-1l-1,1Z"/>
  <path class="st1" d="M479.51,403.51c.31-.35.7-.65,1-1l-1,1Z"/>
  <path class="st1" d="M106.76,136.69h1l-.49.98c-.64-.17-.4-.61-.51-.98Z"/>
  <path class="st4" d="M465.52,136.69c.42-.38,4.06-1.91,4.61-2.32.9-.67,1.2-2.23,2.39-3.16,4.12-3.22,8.47,1.07,11.98,3.49,1.29.89,2.47,1.77,3.5,2.98.61.1.41-.88.49-.98.99-1.22.85-4.03,2-2.5v12.49c-.28.43-1.61-1.02-2-1-1.06.07-10.95,7.87-11.06,8.57-.5,3.12,6.89,6.67,9.06,10.42.57.98-1.37,2.68,2.99,2l.99-5v14.98c-1.26.25-1.23-1.22-1.99-1.99-.46-.47-.13-1.46-2-1-3.57.59-6.87,7.93-10.46,8.05-.47.02-1.1-2.03-2.15-2.89-6.89-5.65-6.38-4.03-11.38-11.15l12.97-12.49-13.97-12.49c.79-.75,1.81-3.73,3-5,.33-.35.63-.67,1-1Z"/>
  <path class="st4" d="M466.52,303.58c6.24-4.54,8.05-9.28,16.06-2.57,2.96,2.48,1.82,6.27,7.92,3.57.05,2.99-.04,6,0,8.99h-1c-.16-.76-.02-.95-1-1-.52-.02-1.41.84-2,1-.7.19-2.06-.42-2.81.15s-.47,2.64-1.47,3.58c-1.48,1.38-6.84,2.73-9.01,2.07-.46-.14-7-5.68-7.36-6.14-1.25-1.59-2.08-6.42-2.34-6.65.57-1.56,1.79-2.12,3-3Z"/>
  <path class="st4" d="M471.52,104.71c3.92-3.36,3.84.8,5.57,1.89,5.23,3.28,8.26,4.41,10.74,11.3.68,1.87,1.64,3.02-1.32,2.8-.56-1.05-.82-1.2-2-1l-1,1c-.34.25-.66.69-1,1l-6.48,4.99c-1.38-5.13-3.82-3.58-6.17-5.35-2.95-2.22-5.03-6.2-8.34-8.14,1.98.08,1.75-2.24,2-2.49.35-.35.59-.68,1-1,1.6-1.25,4.61-2.07,6-3l1-2Z"/>
  <path class="st2" d="M490.51,313.57c.07,4.27.37,8.81-.5,13-1.14,0-.14-11.33-.5-13h1Z"/>
  <rect class="st2" x="484.52" y="185.65" width="10.98" height="1.01" transform="translate(303.71 676.11) rotate(-89.98)"/>
  <rect class="st2" x="489.52" y="398.52" width=".98" height="5.99"/>
  <path class="st4" d="M451.53,102.71c.35.66.63,1.35,1,2,.85,1.49,1.8,3.84,2.6,4.9,1.26,1.65,4.44,2.11,4.44,4.6,0,1.93-6.58,6.13-8.04,8.49-.34.32-.65.68-1,1-6.69,3.97-9.56-3.49-14.99-6-.89-.67-1.86-1.96-2-2-.8-6.2,7.89-6.65,8.99-12.99,3.11-.03,5.76-.07,8.99,0Z"/>
  <path class="st4" d="M412.56,102.71c.17,0,.77-.84,1.58-.92,7.67-.81,4.22.99,5.63,2.64.17.2,3.53,1.49,4.78,2.28,1.44,2,2.56,4.96,5,5,.69,5.97-8.97,10.95-13.52,13.97l.48-1.92c-7.7.65-4.58-4.77-4.94-5.06-1.42-1.14-12.07-.07-6.01-9,.26-.39.71-.65,1-1,1.42-1.74,4.99-3.35,6-6Z"/>
  <path class="st1" d="M406.56,108.71l5-6c.33-.01.67.02,1,0-1,2.65-4.57,4.26-6,6Z"/>
  <path class="st3" d="M470.52,106.71c.09-.06-.1-1.05,1-2l-1,2Z"/>
  <path class="st3" d="M467.52,102.71c-.47-.47.93-1.59,1-.5.02.35-.78.72-1,.5Z"/>
  <rect class="st2" x="489.51" y="481.46" width="1" height="14.99"/>
  <rect class="st2" x="489.52" y="453.48" width=".98" height="6.99"/>
  <path class="st4" d="M439.54,133.69c1.19-1.28,3.74-1.61,4.58-4,1.69.89,4.25.58,5.74,1.18,1.94.78,1.31,2.7,2.22,3.77.83.98,10.38,5.58,6.83,8.13-.55.4-2.06.24-3.08,1.21-3.07,2.91-6.93,7.37-10.28,10.7-.37-.27-.64-.74-1-1,1.13-4.99-2.89-2.07-3.92-3.12-.32-.33.16-1.92-.3-2.59-.49-.71-2.64-.98-3.73-1.82-6.15-4.8-1.75-5.22,1-8.95.72-.97.81-2.35.94-2.51.31-.36.68-.66,1-1Z"/>
  <path class="st1" d="M463.52,110.71c-.24.25-.02,2.58-2,2.49,3.3,1.93,5.38,5.92,8.34,8.14,2.35,1.77,4.79.22,6.17,5.35l6.48-4.99c-.88.82-5.12,5.59-4.95,6.39l6.95,6.6c-3.51-2.42-7.86-6.7-11.98-3.49-1.2.93-1.49,2.5-2.39,3.16-.55.41-4.19,1.94-4.61,2.32.45-2.87,8.34-6.23,8.85-7.13,1.7-2.97-10.69-12.87-13.36-14.69-1.24.01-5.83,5.84-6.94,6.87-.9.84-2.34.76-2.54.96,1.46-2.37,8.04-6.56,8.04-8.49,0-2.48-3.18-2.95-4.44-4.6-.8-1.06-1.75-3.41-2.6-4.9,3.27,1.62,6.65,8.38,10.99,6Z"/>
  <path class="st1" d="M483.51,120.7l1-1c-.07.01-.56.68-1,1Z"/>
</svg>